<svg width="616" height="449" viewBox="0 0 616 449" fill="none" xmlns="http://www.w3.org/2000/svg">
<path d="M569.728 345.217C567.545 343.567 564.677 342.952 561.907 342.455C542.576 338.988 522.739 338.977 503.046 338.979C354.114 338.992 205.181 339.007 56.2485 339.02L62.522 341.286C54.5237 342.211 46.2272 343.231 39.4317 347.234C32.6363 351.238 27.8185 359.145 30.4106 366.192C31.6199 369.484 34.259 372.178 37.2158 374.328C56.7851 388.568 85.3789 380.089 109.878 384.275C125.103 386.878 138.711 394.473 153.275 399.329C174.444 406.385 197.88 407.532 219.738 402.581C232.48 399.694 244.62 394.812 257.395 392.056C273.573 388.568 290.364 388.571 306.978 388.593L390.573 388.701C405.838 388.72 421.136 388.741 436.317 390.227C461.904 392.73 487.259 399.386 512.923 397.679C538.588 395.975 565.948 382.981 572.68 360.052C574.188 354.914 574.193 348.587 569.728 345.217Z" fill="#D1DEF2"/>
<path d="M572.416 361.439L76.9706 361.063C76.9706 361.063 -9.83511 280.918 52.6322 211.26C115.099 141.603 139.927 254.273 155.592 148.58C174.308 22.2943 394.6 10.33 400.565 109.385C416.581 375.237 668.146 109.77 572.416 361.439Z" fill="#E6EBF4"/>
<path d="M57.0938 329.801H58.5122L58.2885 338.631H57.0938V329.801Z" fill="#5CA88D"/>
<path d="M70.4076 325.259C70.9425 324.829 85.5336 312.562 83.8153 297.169C82.097 281.776 68.1738 277.967 72.1275 260.034C76.0813 242.101 72.1275 229.722 60.0961 229.565C48.063 229.406 42.5644 240.197 47.032 259.399C51.5012 278.602 32.355 286.112 33.2806 300.185C34.3489 316.406 48.2348 343.033 70.4076 325.259Z" fill="#7AC094"/>
<path opacity="0.2" d="M51.7623 231.964C51.9698 232.818 52.5145 233.663 53.4061 234.031C54.2279 234.371 55.173 234.302 56.037 234.161C57.637 233.902 59.2532 233.348 60.8986 233.547C61.7253 233.648 62.5131 233.983 63.254 234.321C64.0693 234.694 64.8426 235.143 65.5639 235.655C66.9451 236.635 68.143 237.859 68.9682 239.281C69.9084 240.902 70.2342 242.689 70.2909 244.51C70.3542 246.613 70.1434 248.719 70.5552 250.801C70.8291 252.187 71.2927 253.706 72.3432 254.77C72.5458 254.975 72.7711 255.14 73.0062 255.283C75.2903 239.95 71.0318 229.707 60.0945 229.563C56.7924 229.52 53.9929 230.313 51.7461 231.868C51.7542 231.901 51.7542 231.931 51.7623 231.964Z" fill="#F2FAFF"/>
<path opacity="0.15" d="M60.6067 293.812C58.9354 290.97 58.9127 287.441 59.8319 284.388C60.3247 282.752 61.0785 281.188 61.9441 279.693C62.2943 279.089 62.7255 278.518 63.0432 277.9C63.2734 277.454 63.228 277.063 63.0416 276.608C62.719 275.821 62.2618 275.071 61.9003 274.297C61.5372 273.517 61.1871 272.73 60.8904 271.926C60.2696 270.253 60.0199 268.56 59.874 266.805C59.7314 265.072 59.7995 263.279 60.3992 261.617C60.9342 260.134 62.0916 258.937 62.6752 257.485C61.7188 256.945 60.8872 256.249 60.1999 255.43C59.4072 254.484 58.7912 253.432 58.3065 252.32C58.3016 254.776 58.3016 257.232 58.2951 259.688C58.2676 269.476 58.2238 279.265 58.1979 289.053C58.1752 297.775 58.1768 306.498 58.1768 315.22C58.3729 314.593 58.582 313.969 58.8203 313.354C60.9472 307.825 64.494 302.916 67.9323 298.022C64.8474 298.13 62.0722 296.304 60.6067 293.812Z" fill="#202234"/>
<path opacity="0.15" d="M62.3785 329.984C60.691 330 58.9857 329.738 57.4716 329.027C55.8732 328.276 54.6169 327.038 53.7334 325.61C53.1888 324.73 52.8646 323.858 52.6798 322.861C52.4804 321.789 52.2729 320.779 51.5094 319.914C50.1801 318.408 47.9106 318.199 46.0918 317.439C44.3864 316.726 43.0783 315.372 42.0667 313.947C41.0519 312.517 40.3338 310.91 39.841 309.267C38.7987 305.785 38.6852 302.066 39.1683 298.495C39.6141 295.192 40.5575 291.919 42.3326 289.003C44.4481 285.53 47.2282 282.428 49.2075 278.883C50.1785 277.144 50.9015 275.291 51.2176 273.351C51.5937 271.04 51.3586 268.712 50.788 266.446C50.1574 263.945 49.1556 261.544 48.1262 259.164C47.1649 256.946 46.3431 254.707 45.7935 252.374C46.0448 254.573 46.4533 256.913 47.032 259.399C51.5013 278.602 32.355 286.112 33.2806 300.185C34.2127 314.352 44.9246 336.454 62.3931 329.984H62.3785Z" fill="#202234"/>
<path d="M73.5475 293.761C73.5308 293.746 73.5109 293.733 73.4889 293.725C73.4669 293.716 73.4433 293.712 73.4195 293.712C73.3956 293.712 73.372 293.716 73.3501 293.725C73.3281 293.733 73.3081 293.746 73.2914 293.761L58.047 307.834V283.904L66.5413 275.62C66.6094 275.554 66.6078 275.448 66.5349 275.384C66.5 275.353 66.4535 275.337 66.4055 275.338C66.3575 275.339 66.3119 275.358 66.2787 275.39L58.047 283.416V261.885L64.2184 256.102C64.2881 256.036 64.2881 255.931 64.2168 255.866C64.1825 255.835 64.1364 255.817 64.0884 255.818C64.0404 255.818 63.9944 255.836 63.9606 255.867L58.047 261.409V242.894C58.0481 242.872 58.0442 242.849 58.0355 242.828C58.0269 242.807 58.0138 242.788 57.9969 242.771C57.98 242.755 57.9597 242.742 57.9373 242.733C57.9148 242.724 57.8907 242.72 57.8663 242.72C57.8419 242.72 57.8177 242.724 57.7953 242.733C57.7728 242.742 57.7526 242.755 57.7357 242.771C57.7188 242.788 57.7056 242.807 57.697 242.828C57.6884 242.849 57.6845 242.872 57.6855 242.894V268.718L52.991 265.024C52.9543 264.995 52.907 264.982 52.8594 264.985C52.8117 264.989 52.7676 265.01 52.7365 265.043C52.6716 265.114 52.6813 265.218 52.7575 265.278L57.6872 269.156V293.475L48.3856 284.888C48.3159 284.823 48.2008 284.823 48.1294 284.888C48.0597 284.953 48.0597 285.058 48.1294 285.124L57.6872 293.947V330.654C57.6872 330.747 57.7682 330.82 57.8687 330.82C57.9676 330.82 58.0486 330.745 58.0486 330.654V308.304L73.5475 293.995C73.6189 293.932 73.6189 293.827 73.5475 293.761Z" fill="#B8DEBF"/>
<path d="M414.819 339.01H416.239L416.016 347.84H414.819V339.01Z" fill="#5CA88D"/>
<path d="M428.134 334.468C428.669 334.038 443.26 321.771 441.542 306.378C439.824 290.985 425.9 287.176 429.854 269.243C433.808 251.31 429.854 238.931 417.823 238.774C405.79 238.615 400.291 249.406 404.759 268.608C409.228 287.81 390.082 295.321 391.007 309.394C392.074 325.615 405.961 352.241 428.134 334.468Z" fill="#7AC094"/>
<path opacity="0.2" d="M409.489 241.173C409.696 242.027 410.241 242.872 411.133 243.24C411.954 243.579 412.9 243.511 413.764 243.37C415.364 243.111 416.98 242.557 418.625 242.756C419.452 242.857 420.24 243.192 420.981 243.53C421.796 243.903 422.569 244.352 423.291 244.864C424.672 245.844 425.87 247.068 426.695 248.49C427.635 250.111 427.961 251.898 428.018 253.719C428.081 255.822 427.87 257.928 428.282 260.01C428.556 261.396 429.019 262.915 430.07 263.979C430.272 264.184 430.498 264.349 430.733 264.492C433.017 249.159 428.758 238.916 417.821 238.772C414.519 238.729 411.719 239.522 409.473 241.077C409.479 241.11 409.481 241.14 409.489 241.173Z" fill="#F2FAFF"/>
<path opacity="0.15" d="M418.332 303.021C416.661 300.179 416.638 296.65 417.557 293.597C418.05 291.961 418.804 290.397 419.67 288.902C420.02 288.298 420.451 287.727 420.769 287.109C420.999 286.663 420.954 286.272 420.767 285.817C420.445 285.03 419.987 284.28 419.626 283.506C419.263 282.726 418.913 281.939 418.616 281.135C417.995 279.462 417.746 277.769 417.6 276.014C417.457 274.281 417.525 272.488 418.125 270.826C418.66 269.343 419.817 268.146 420.401 266.694C419.444 266.154 418.613 265.458 417.925 264.639C417.133 263.693 416.517 262.641 416.032 261.529C416.027 263.985 416.027 266.441 416.021 268.897C415.993 278.685 415.949 288.474 415.923 298.262C415.901 306.984 415.902 315.707 415.902 324.429C416.099 323.802 416.308 323.178 416.546 322.563C418.673 317.034 422.22 312.125 425.658 307.231C422.575 307.339 419.799 305.513 418.332 303.021Z" fill="#202234"/>
<path opacity="0.15" d="M420.106 339.193C418.418 339.209 416.713 338.947 415.199 338.236C413.6 337.485 412.344 336.247 411.461 334.819C410.916 333.939 410.592 333.067 410.407 332.07C410.208 330.998 410 329.988 409.237 329.123C407.907 327.617 405.638 327.408 403.819 326.648C402.114 325.935 400.805 324.581 399.794 323.156C398.779 321.726 398.061 320.119 397.568 318.476C396.526 314.994 396.412 311.275 396.895 307.704C397.341 304.401 398.285 301.128 400.06 298.212C402.175 294.739 404.955 291.637 406.935 288.092C407.906 286.353 408.629 284.5 408.945 282.56C409.321 280.249 409.086 277.921 408.515 275.655C407.885 273.154 406.883 270.753 405.852 268.373C404.89 266.155 404.069 263.916 403.519 261.583C403.77 263.782 404.179 266.122 404.758 268.608C409.227 287.81 390.081 295.321 391.006 309.394C391.938 323.561 402.65 345.663 420.119 339.193C420.115 339.191 420.111 339.193 420.106 339.193Z" fill="#202234"/>
<path d="M431.274 302.97C431.258 302.955 431.238 302.942 431.216 302.934C431.194 302.925 431.17 302.921 431.146 302.921C431.123 302.921 431.099 302.925 431.077 302.934C431.055 302.942 431.035 302.955 431.018 302.97L415.774 317.043V293.113L424.268 284.829C424.336 284.763 424.335 284.657 424.262 284.593C424.227 284.562 424.18 284.546 424.132 284.547C424.084 284.548 424.039 284.567 424.006 284.599L415.774 292.625V271.094L421.945 265.311C422.015 265.245 422.015 265.14 421.944 265.075C421.909 265.044 421.863 265.026 421.815 265.027C421.767 265.027 421.721 265.045 421.688 265.076L415.774 270.618V252.1C415.774 252.056 415.755 252.014 415.721 251.983C415.687 251.951 415.642 251.934 415.594 251.934C415.546 251.934 415.5 251.951 415.467 251.983C415.433 252.014 415.414 252.056 415.414 252.1V277.924L410.719 274.23C410.683 274.201 410.636 274.188 410.588 274.191C410.54 274.195 410.496 274.216 410.465 274.249C410.4 274.32 410.41 274.424 410.486 274.484L415.416 278.362V302.681L406.114 294.093C406.044 294.029 405.929 294.029 405.858 294.093C405.788 294.159 405.788 294.264 405.858 294.33L415.416 303.153V339.86C415.416 339.953 415.497 340.026 415.596 340.026C415.694 340.026 415.776 339.951 415.776 339.86V317.51L431.274 303.201C431.344 303.141 431.344 303.035 431.274 302.97Z" fill="#B8DEBF"/>
<path d="M387.024 334.373H385.008L385.327 346.912H387.024V334.373Z" fill="#5CA88D"/>
<path d="M368.117 327.921C367.357 327.312 346.636 309.892 349.078 288.032C351.519 266.172 371.289 260.764 365.676 235.298C360.062 209.833 365.676 192.254 382.762 192.03C399.848 191.804 407.659 207.128 401.313 234.397C394.967 261.665 422.155 272.33 420.84 292.314C419.324 315.351 399.604 353.162 368.117 327.921Z" fill="#7AC094"/>
<path opacity="0.2" d="M394.595 195.438C394.3 196.65 393.527 197.849 392.261 198.373C391.094 198.855 389.75 198.757 388.525 198.558C386.253 198.19 383.956 197.403 381.62 197.686C380.445 197.828 379.328 198.305 378.276 198.786C377.117 199.314 376.021 199.953 374.995 200.679C373.034 202.071 371.333 203.809 370.161 205.829C368.826 208.129 368.363 210.668 368.284 213.256C368.193 216.241 368.493 219.232 367.908 222.189C367.521 224.157 366.861 226.314 365.368 227.827C365.081 228.117 364.762 228.351 364.426 228.556C361.181 206.782 367.23 192.235 382.762 192.031C387.451 191.968 391.428 193.097 394.616 195.305C394.607 195.349 394.605 195.391 394.595 195.438Z" fill="#F2FAFF"/>
<path opacity="0.15" d="M382.035 283.267C384.408 279.23 384.439 274.218 383.134 269.883C382.434 267.561 381.364 265.34 380.133 263.216C379.637 262.36 379.024 261.548 378.572 260.67C378.246 260.037 378.311 259.482 378.575 258.837C379.033 257.72 379.683 256.654 380.195 255.554C380.71 254.447 381.206 253.329 381.63 252.188C382.51 249.813 382.866 247.409 383.072 244.915C383.275 242.454 383.178 239.908 382.327 237.548C381.568 235.442 379.924 233.74 379.094 231.681C380.451 230.915 381.633 229.925 382.609 228.763C383.735 227.42 384.609 225.926 385.298 224.346C385.304 227.835 385.304 231.322 385.314 234.809C385.353 248.709 385.415 262.61 385.452 276.509C385.484 288.896 385.481 301.282 385.481 313.668C385.202 312.778 384.904 311.892 384.568 311.018C381.548 303.166 376.51 296.196 371.631 289.246C376.013 289.398 379.953 286.806 382.035 283.267Z" fill="#202234"/>
<path opacity="0.15" d="M379.518 334.632C381.915 334.656 384.336 334.285 386.487 333.275C388.758 332.208 390.539 330.451 391.796 328.423C392.571 327.173 393.029 325.934 393.29 324.518C393.574 322.996 393.867 321.56 394.952 320.333C396.839 318.194 400.063 317.898 402.645 316.817C405.067 315.806 406.925 313.882 408.361 311.859C409.804 309.828 410.822 307.547 411.521 305.212C413.002 300.269 413.161 294.986 412.477 289.916C411.843 285.226 410.504 280.577 407.983 276.437C404.98 271.504 401.031 267.101 398.22 262.065C396.84 259.595 395.814 256.964 395.367 254.209C394.834 250.927 395.166 247.619 395.976 244.401C396.871 240.85 398.293 237.44 399.757 234.062C401.122 230.913 402.289 227.733 403.068 224.419C402.71 227.541 402.132 230.865 401.31 234.394C394.963 261.662 422.152 272.327 420.837 292.311C419.512 312.429 404.302 343.816 379.495 334.628C379.505 334.632 379.511 334.632 379.518 334.632Z" fill="#202234"/>
<path d="M363.659 283.195C363.76 283.102 363.922 283.102 364.022 283.195L385.67 303.18V269.198L373.608 257.434C373.51 257.34 373.514 257.189 373.617 257.099C373.721 257.009 373.883 257.014 373.98 257.108L385.67 268.506V237.931L376.906 229.717C376.808 229.625 376.808 229.475 376.91 229.382C377.012 229.291 377.174 229.291 377.273 229.385L385.671 237.256V210.96C385.671 210.897 385.698 210.837 385.746 210.792C385.794 210.748 385.86 210.723 385.928 210.723C385.995 210.723 386.061 210.748 386.109 210.792C386.157 210.837 386.184 210.897 386.184 210.96V247.631L392.849 242.387C392.958 242.303 393.12 242.313 393.211 242.414C393.303 242.514 393.29 242.664 393.182 242.747L386.182 248.254V282.789L399.39 270.594C399.491 270.502 399.653 270.502 399.754 270.594C399.854 270.687 399.854 270.837 399.754 270.93L386.182 283.46V335.589C386.182 335.72 386.067 335.825 385.926 335.825C385.785 335.825 385.67 335.719 385.67 335.589V303.85L363.661 283.53C363.559 283.437 363.559 283.286 363.659 283.195Z" fill="#B8DEBF"/>
<path d="M92.1328 325.673H94.2305L93.8998 338.718H92.1328V325.673Z" fill="#5CA88D"/>
<path d="M111.804 318.962C112.595 318.329 134.151 300.206 131.61 277.464C129.072 254.722 108.502 249.096 114.343 222.602C120.184 196.11 114.343 177.822 96.5681 177.588C78.7932 177.354 70.6669 193.296 77.2694 221.665C83.872 250.033 55.5862 261.129 56.9544 281.92C58.5317 305.883 79.0461 345.22 111.804 318.962Z" fill="#7AC094"/>
<path opacity="0.2" d="M84.2577 181.133C84.5657 182.394 85.3698 183.643 86.6861 184.186C87.9002 184.687 89.2959 184.585 90.5733 184.379C92.9368 183.996 95.3263 183.177 97.7562 183.472C98.9785 183.62 100.141 184.115 101.237 184.617C102.443 185.168 103.582 185.831 104.649 186.588C106.69 188.037 108.458 189.845 109.677 191.946C111.067 194.339 111.548 196.979 111.631 199.67C111.726 202.776 111.414 205.887 112.021 208.965C112.425 211.012 113.111 213.256 114.664 214.83C114.962 215.132 115.296 215.375 115.643 215.589C119.018 192.937 112.725 177.803 96.5664 177.59C91.6886 177.526 87.5517 178.699 84.2334 180.995C84.2447 181.041 84.2464 181.085 84.2577 181.133Z" fill="#F2FAFF"/>
<path opacity="0.15" d="M97.3231 272.504C94.8527 268.306 94.8219 263.092 96.1787 258.581C96.9065 256.163 98.0202 253.853 99.2992 251.645C99.8147 250.753 100.453 249.909 100.924 248.996C101.262 248.337 101.196 247.76 100.92 247.089C100.444 245.926 99.7677 244.819 99.2344 243.675C98.6978 242.523 98.1823 241.36 97.7414 240.173C96.8255 237.702 96.4559 235.201 96.2419 232.606C96.0312 230.045 96.1317 227.396 97.0168 224.942C97.8062 222.75 99.5164 220.981 100.379 218.838C98.9669 218.04 97.7381 217.012 96.7233 215.801C95.5513 214.405 94.6419 212.85 93.9238 211.205C93.9173 214.833 93.9173 218.462 93.906 222.09C93.8654 236.551 93.8022 251.012 93.7633 265.473C93.7293 278.359 93.7325 291.244 93.7325 304.13C94.0227 303.204 94.3323 302.282 94.6824 301.373C97.8257 293.204 103.065 285.953 108.144 278.724C103.589 278.884 99.4889 276.187 97.3231 272.504Z" fill="#202234"/>
<path opacity="0.15" d="M99.9415 325.943C97.4483 325.968 94.9292 325.582 92.6921 324.53C90.3303 323.421 88.4758 321.59 87.1692 319.481C86.3636 318.181 85.887 316.892 85.613 315.42C85.3196 313.836 85.0116 312.344 83.885 311.067C81.9219 308.842 78.5679 308.533 75.8818 307.409C73.3627 306.356 71.4304 304.356 69.9358 302.25C68.4363 300.139 67.3762 297.763 66.6483 295.336C65.1067 290.193 64.9413 284.697 65.653 279.423C66.3128 274.543 67.7052 269.708 70.3265 265.401C73.4502 260.269 77.558 255.688 80.484 250.449C81.9186 247.881 82.9869 245.142 83.4521 242.277C84.0082 238.864 83.6613 235.423 82.8183 232.075C81.8878 228.379 80.4078 224.832 78.884 221.317C77.4656 218.04 76.2498 214.733 75.4393 211.286C75.8121 214.534 76.4152 217.992 77.2694 221.664C83.872 250.032 55.5862 261.128 56.9544 281.918C58.3323 302.848 74.1554 335.5 99.9642 325.941C99.9561 325.943 99.9496 325.943 99.9415 325.943Z" fill="#202234"/>
<path d="M116.441 272.429C116.336 272.332 116.167 272.332 116.064 272.429L93.544 293.221V257.868L106.093 245.631C106.118 245.608 106.139 245.581 106.152 245.55C106.166 245.519 106.173 245.486 106.173 245.453C106.173 245.42 106.165 245.387 106.151 245.357C106.137 245.326 106.116 245.299 106.09 245.276C106.063 245.253 106.033 245.236 105.999 245.224C105.965 245.213 105.929 245.207 105.893 245.209C105.857 245.211 105.822 245.219 105.79 245.233C105.758 245.248 105.729 245.268 105.705 245.293L93.544 257.151V225.341L102.661 216.797C102.765 216.699 102.763 216.544 102.658 216.448C102.552 216.352 102.384 216.352 102.28 216.451L93.5424 224.639V197.282C93.5424 197.145 93.424 197.035 93.2749 197.035C93.1274 197.035 93.0074 197.145 93.0074 197.282V235.432L86.0725 229.976C85.9607 229.888 85.7921 229.9 85.6965 230.005C85.6008 230.108 85.6138 230.264 85.7273 230.352L93.009 236.081V272.009L79.269 259.323C79.1652 259.227 78.995 259.227 78.8913 259.323C78.7875 259.419 78.7875 259.574 78.8913 259.672L93.0107 272.706V326.936C93.0107 327.073 93.1306 327.183 93.2781 327.183C93.4256 327.183 93.5456 327.073 93.5456 326.936V293.918L116.443 272.778C116.545 272.682 116.545 272.525 116.441 272.429Z" fill="#B8DEBF"/>
<path d="M51.2055 345.824C51.2055 345.824 55.4656 317.272 46.9826 320.091C38.5013 322.909 42.395 334.351 51.2055 345.824Z" fill="#394CA4"/>
<path d="M51.7667 345.547C51.7667 345.547 34.4215 317.385 22.4549 327.068C10.4883 336.753 51.7667 345.547 51.7667 345.547Z" fill="#100959"/>
<path opacity="0.5" d="M23.1193 327.384C23.4662 328.264 24.0352 329.009 25.0629 329.24C26.3468 329.527 27.7458 329.178 29.0361 329.111C30.508 329.035 31.92 329.237 33.2541 329.828C34.5428 330.4 35.6468 331.265 36.7377 332.106C37.8303 332.948 38.944 333.866 40.2214 334.463C41.4339 335.029 42.8718 335.271 44.2043 335.463H44.2075C38.2194 328.669 29.751 321.783 22.9102 326.724C22.9653 326.947 23.0334 327.167 23.1193 327.384Z" fill="#F2FAFF"/>
<path d="M27.3585 361.063H177.105L174.957 354.152L169.906 337.781C166.327 326.225 153.893 318.994 141.049 321.014L134.567 322.053C134.076 322.129 133.606 322.166 133.135 322.166C130.273 322.166 127.553 320.845 125.936 318.597C114.811 303.19 89.6572 305.097 81.3947 321.978L80.2908 324.244C78.3423 328.241 73.257 330.028 68.924 328.237L62.4592 325.565C58.6757 323.998 54.4626 325.169 52.1315 327.926C51.2723 328.925 50.6579 330.135 50.4132 331.494L49.4519 336.668C49.2055 337.952 48.6738 339.085 47.9184 340.029C47.7757 340.2 47.6314 340.369 47.4888 340.52C46.1901 341.908 44.4141 342.841 42.4587 343.163C41.9691 343.258 41.4358 343.295 40.9251 343.295C39.3025 343.295 37.6587 342.885 36.1657 341.964C32.7988 339.89 28.2858 340.406 25.423 343.049L21.0786 347.061C15.4811 352.227 19.4446 361.063 27.3585 361.063Z" fill="#4094F2"/>
<path opacity="0.2" d="M21.497 350.028C22.374 348.824 22.9024 347.421 23.8459 346.258C25.7944 343.855 29.3656 343.371 32.4034 343.841C34.446 344.158 36.3734 344.833 38.4759 344.66C40.1164 344.524 41.7488 344.286 43.3423 343.9C46.4709 343.139 49.6417 341.725 51.3973 339.101C53.1448 336.493 52.3116 333.037 54.3768 330.561C56.5976 327.899 60.4233 328.149 63.505 329.19C65.233 329.774 66.7649 330.753 68.4978 331.302C70.5322 331.947 72.7158 332.028 74.8086 331.586C75.8914 331.357 76.9402 331.003 77.9356 330.551C78.5532 330.269 79.1157 329.966 79.5518 329.464C80.2683 328.64 80.5374 327.548 80.4952 326.508C80.4709 325.875 80.3185 325.242 80.0575 324.661C77.9664 328.36 73.0983 329.963 68.9225 328.237L62.4578 325.565C58.6742 323.998 54.4611 325.169 52.13 327.926C51.2709 328.925 50.6565 330.135 50.4117 331.494L49.4504 336.668C49.204 337.952 48.6723 339.085 47.9169 340.029C47.7743 340.2 47.63 340.369 47.4873 340.52C46.1882 341.907 44.4124 342.84 42.4572 343.163C41.9676 343.258 41.4343 343.295 40.9237 343.295C39.301 343.295 37.6573 342.885 36.1643 341.964C32.7974 339.89 28.2843 340.406 25.4216 343.049L21.0771 347.061C19.4982 348.518 18.6812 350.268 18.498 352.029C19.7463 351.775 20.7594 351.045 21.497 350.028Z" fill="#F2FAFF"/>
<path opacity="0.25" d="M40.5752 361.063H177.105L174.957 354.152C168.209 348.563 158.883 345.826 149.393 347.336L144.342 348.129L141.622 348.545C141.029 348.64 140.437 348.677 139.863 348.677C138.595 348.677 137.347 348.469 136.182 348.054C134.219 347.355 132.5 346.128 131.273 344.429C129.555 342.032 127.53 339.992 125.322 338.311C124.463 337.632 123.584 337.027 122.664 336.479C117.694 333.439 111.989 331.929 106.262 331.872C102.908 331.815 99.575 332.269 96.3848 333.231C88.6345 335.497 81.7629 340.652 77.9388 348.487L76.6096 351.169C74.2574 355.984 68.1428 358.118 62.949 355.964L59.0228 354.34L55.2392 352.773C53.5209 352.056 51.7216 351.83 50.0032 351.98C45.5437 352.377 41.6175 355.436 40.8005 359.872L40.5752 361.063Z" fill="#F2FAFF"/>
<path d="M59.0889 335.58C59.0889 336.937 60.2803 338.037 61.7506 338.037C63.2209 338.037 64.4124 336.937 64.4124 335.58C64.4124 334.222 63.2209 333.122 61.7506 333.122C60.2803 333.122 59.0889 334.224 59.0889 335.58Z" fill="#100959"/>
<path opacity="0.15" d="M59.7051 336.162C59.7051 337.519 60.8966 338.619 62.3668 338.619C63.8371 338.619 65.0286 337.519 65.0286 336.162C65.0286 334.804 63.8371 333.704 62.3668 333.704C60.8966 333.704 59.7051 334.804 59.7051 336.162Z" fill="#202234"/>
<path d="M97.6895 354.351C97.6895 355.708 98.8809 356.808 100.351 356.808C101.822 356.808 103.013 355.708 103.013 354.351C103.013 352.993 101.822 351.893 100.351 351.893C98.8809 351.893 97.6895 352.993 97.6895 354.351Z" fill="#394CA4"/>
<path opacity="0.15" d="M87.4756 323.112C87.4756 325.729 89.7726 327.848 92.6046 327.848C95.4382 327.848 97.7352 325.727 97.7352 323.112C97.7352 320.498 95.4382 318.375 92.6046 318.375C89.7726 318.375 87.4756 320.496 87.4756 323.112Z" fill="#202234"/>
<path d="M88.1191 321.429C88.1191 324.045 90.4162 326.164 93.2481 326.164C96.0817 326.164 98.3788 324.043 98.3788 321.429C98.3788 318.812 96.0817 316.692 93.2481 316.692C90.4162 316.693 88.1191 318.812 88.1191 321.429Z" fill="#394CA4"/>
<path d="M59.1865 359.77C59.1865 359.77 71.1904 345.796 65.7112 344.832C60.2304 343.868 58.4035 351.096 59.1865 359.77Z" fill="#100959"/>
<path opacity="0.5" d="M59.5717 351.179C60.1309 351.057 60.4811 350.696 60.721 350.229C61.2024 349.292 61.1684 348.193 61.7212 347.284C62 346.826 62.4344 346.475 62.9483 346.257C63.4557 346.041 64.0231 345.934 64.5061 345.669C64.973 345.413 65.0589 345.103 64.6974 344.747C61.8298 344.783 60.1374 347.357 59.4209 351.203C59.4695 351.194 59.5214 351.19 59.5717 351.179Z" fill="#F2FAFF"/>
<path d="M59.1858 359.77C59.1858 359.77 51.6187 340.978 43.2671 345.796C34.917 350.614 59.1858 359.77 59.1858 359.77Z" fill="#394CA4"/>
<path opacity="0.2" d="M43.6084 345.628C43.6959 345.808 43.8905 345.974 44.0412 346.029C44.3752 346.155 44.8047 346.106 45.1565 346.1C45.9314 346.086 46.7305 346.035 47.4957 346.178C48.3192 346.33 49.107 346.77 49.7846 347.213C51.0312 348.026 51.8352 349.292 53.1159 350.049C53.3234 350.172 53.6168 350.307 53.9491 350.424C51.1414 346.686 47.4697 343.689 43.6084 345.628Z" fill="#F2FAFF"/>
<path d="M59.1865 359.77C59.1865 359.77 87.1092 356.638 80.0624 352.543C73.0173 348.446 59.1865 359.77 59.1865 359.77Z" fill="#394CA4"/>
<path opacity="0.2" d="M68.5107 354.048C69.3325 353.909 69.9372 353.462 70.6375 353.077C71.2989 352.713 72.017 352.419 72.774 352.272C73.8456 352.064 74.9219 352.317 75.9983 352.181C76.3744 352.133 76.8153 352.014 76.9564 351.67C74.1665 351.512 70.9423 352.633 68.0098 354.092C68.1767 354.086 68.3437 354.077 68.5107 354.048Z" fill="#F2FAFF"/>
<path d="M294.533 345.824C294.533 345.824 298.793 317.272 290.31 320.091C281.828 322.909 285.722 334.351 294.533 345.824Z" fill="#394CA4"/>
<path d="M295.093 345.547C295.093 345.547 277.748 317.385 265.781 327.068C253.814 336.753 295.093 345.547 295.093 345.547Z" fill="#100959"/>
<path opacity="0.5" d="M266.446 327.384C266.793 328.264 267.362 329.009 268.39 329.24C269.674 329.527 271.073 329.178 272.363 329.111C273.835 329.035 275.247 329.237 276.581 329.828C277.87 330.4 278.974 331.265 280.063 332.106C281.156 332.948 282.269 333.866 283.547 334.463C284.759 335.029 286.197 335.271 287.529 335.463H287.533C281.543 328.669 273.076 321.783 266.235 326.724C266.292 326.947 266.362 327.167 266.446 327.384Z" fill="#F2FAFF"/>
<path d="M270.685 361.063H420.432L418.284 354.152L413.232 337.781C409.653 326.225 397.22 318.994 384.378 321.014L377.895 322.053C377.404 322.129 376.934 322.166 376.464 322.166C373.601 322.166 370.881 320.845 369.265 318.597C358.139 303.19 332.986 305.097 324.723 321.978L323.619 324.244C321.671 328.241 316.585 330.028 312.251 328.237L305.786 325.565C302.002 323.998 297.789 325.169 295.458 327.926C294.599 328.925 293.985 330.135 293.74 331.494L292.779 336.668C292.532 337.952 292.002 339.085 291.245 340.029C291.102 340.2 290.958 340.369 290.815 340.52C289.516 341.908 287.74 342.841 285.784 343.163C285.294 343.258 284.761 343.295 284.25 343.295C282.628 343.295 280.984 342.885 279.491 341.964C276.124 339.89 271.611 340.406 268.748 343.049L264.404 347.061C258.808 352.227 262.771 361.063 270.685 361.063Z" fill="#4094F2"/>
<path opacity="0.2" d="M264.824 350.028C265.701 348.824 266.23 347.421 267.173 346.258C269.122 343.855 272.693 343.371 275.729 343.841C277.772 344.158 279.699 344.833 281.802 344.66C283.442 344.524 285.075 344.286 286.668 343.9C289.797 343.139 292.968 341.725 294.723 339.101C296.471 336.493 295.637 333.037 297.703 330.561C299.923 327.899 303.749 328.149 306.831 329.19C308.559 329.774 310.091 330.753 311.824 331.302C313.858 331.947 316.042 332.028 318.134 331.586C319.217 331.357 320.266 331.003 321.261 330.551C321.879 330.269 322.442 329.966 322.878 329.464C323.594 328.64 323.863 327.548 323.821 326.508C323.797 325.875 323.644 325.242 323.383 324.661C321.292 328.36 316.424 329.963 312.248 328.237L305.784 325.565C302 323.998 297.787 325.169 295.456 327.926C294.597 328.925 293.982 330.135 293.738 331.494L292.776 336.668C292.53 337.952 292 339.085 291.243 340.029C291.1 340.2 290.956 340.369 290.813 340.52C289.514 341.908 287.737 342.841 285.781 343.163C285.292 343.258 284.759 343.295 284.248 343.295C282.625 343.295 280.981 342.885 279.488 341.964C276.122 339.89 271.609 340.406 268.746 343.049L264.401 347.061C262.822 348.518 262.005 350.268 261.822 352.029C263.072 351.775 264.085 351.045 264.824 350.028Z" fill="#F2FAFF"/>
<path opacity="0.25" d="M283.901 361.063H420.431L418.283 354.152C411.535 348.563 402.209 345.826 392.719 347.336L387.668 348.129L384.948 348.545C384.355 348.64 383.761 348.677 383.189 348.677C381.922 348.677 380.673 348.469 379.508 348.054C377.545 347.355 375.826 346.128 374.599 344.429C372.881 342.032 370.856 339.992 368.648 338.311C367.789 337.632 366.911 337.027 365.99 336.479C361.02 333.439 355.315 331.929 349.588 331.872C346.234 331.815 342.901 332.269 339.711 333.231C331.961 335.497 325.089 340.652 321.265 348.487L319.936 351.169C317.584 355.984 311.469 358.118 306.275 355.964L302.349 354.34L298.565 352.773C296.847 352.056 295.048 351.83 293.329 351.98C288.87 352.377 284.945 355.436 284.127 359.872L283.901 361.063Z" fill="#F2FAFF"/>
<path d="M302.415 335.58C302.415 336.937 303.607 338.037 305.077 338.037C306.547 338.037 307.739 336.937 307.739 335.58C307.739 334.222 306.547 333.122 305.077 333.122C303.607 333.122 302.415 334.224 302.415 335.58Z" fill="#100959"/>
<path opacity="0.15" d="M303.033 336.162C303.033 337.519 304.225 338.619 305.695 338.619C307.165 338.619 308.357 337.519 308.357 336.162C308.357 334.804 307.165 333.704 305.695 333.704C304.225 333.704 303.033 334.804 303.033 336.162Z" fill="#202234"/>
<path d="M341.016 354.351C341.016 355.708 342.207 356.808 343.677 356.808C345.148 356.808 346.339 355.708 346.339 354.351C346.339 352.993 345.148 351.893 343.677 351.893C342.207 351.893 341.016 352.993 341.016 354.351Z" fill="#394CA4"/>
<path opacity="0.15" d="M330.802 323.112C330.802 325.729 333.099 327.848 335.931 327.848C338.764 327.848 341.061 325.727 341.061 323.112C341.061 320.498 338.764 318.375 335.931 318.375C333.099 318.375 330.802 320.496 330.802 323.112Z" fill="#202234"/>
<path d="M331.445 321.429C331.445 324.045 333.742 326.164 336.576 326.164C339.41 326.164 341.707 324.043 341.707 321.429C341.707 318.812 339.41 316.692 336.576 316.692C333.742 316.693 331.445 318.812 331.445 321.429Z" fill="#394CA4"/>
<path d="M302.513 359.77C302.513 359.77 314.517 345.796 309.037 344.832C303.557 343.868 301.73 351.096 302.513 359.77Z" fill="#100959"/>
<path opacity="0.5" d="M302.899 351.179C303.458 351.057 303.808 350.696 304.048 350.229C304.53 349.292 304.494 348.193 305.048 347.284C305.327 346.826 305.762 346.475 306.275 346.257C306.783 346.041 307.35 345.934 307.833 345.669C308.3 345.413 308.386 345.103 308.025 344.747C305.157 344.783 303.465 347.357 302.748 351.203C302.798 351.194 302.85 351.19 302.899 351.179Z" fill="#F2FAFF"/>
<path d="M302.513 359.77C302.513 359.77 294.946 340.978 286.594 345.796C278.244 350.614 302.513 359.77 302.513 359.77Z" fill="#394CA4"/>
<path opacity="0.2" d="M286.937 345.628C287.024 345.808 287.219 345.974 287.369 346.029C287.703 346.155 288.133 346.106 288.485 346.1C289.261 346.086 290.059 346.035 290.824 346.178C291.647 346.33 292.435 346.77 293.113 347.213C294.359 348.026 295.163 349.292 296.442 350.049C296.65 350.172 296.943 350.307 297.276 350.424C294.47 346.686 290.798 343.689 286.937 345.628Z" fill="#F2FAFF"/>
<path d="M302.513 359.77C302.513 359.77 330.435 356.638 323.389 352.543C316.344 348.446 302.513 359.77 302.513 359.77Z" fill="#394CA4"/>
<path opacity="0.2" d="M311.837 354.048C312.659 353.909 313.263 353.462 313.964 353.077C314.625 352.713 315.343 352.419 316.1 352.272C317.172 352.064 318.248 352.317 319.324 352.181C319.701 352.133 320.142 352.014 320.283 351.67C317.494 351.512 314.268 352.633 311.336 354.092C311.503 354.086 311.67 354.077 311.837 354.048Z" fill="#F2FAFF"/>
<path d="M547.533 337.792C547.533 337.792 541.028 294.192 553.98 298.495C566.932 302.8 560.988 320.272 547.533 337.792Z" fill="#394CA4"/>
<path d="M546.678 337.371C546.678 337.371 573.166 294.364 591.44 309.151C609.712 323.94 546.678 337.371 546.678 337.371Z" fill="#100959"/>
<path opacity="0.5" d="M590.423 309.633C589.892 310.976 589.025 312.115 587.456 312.467C585.495 312.905 583.36 312.372 581.388 312.271C579.14 312.154 576.986 312.462 574.946 313.366C572.977 314.24 571.293 315.56 569.628 316.844C567.96 318.133 566.259 319.532 564.307 320.444C562.456 321.307 560.26 321.677 558.225 321.972H558.219C567.365 311.599 580.296 301.081 590.742 308.628C590.658 308.964 590.552 309.301 590.423 309.633Z" fill="#F2FAFF"/>
<path d="M583.95 361.063H355.276L358.556 350.51L366.27 325.512C371.735 307.866 390.722 296.822 410.335 299.907L420.235 301.492C420.984 301.607 421.704 301.665 422.422 301.665C426.794 301.665 430.947 299.646 433.416 296.214C450.405 272.687 488.817 275.599 501.434 301.376L503.121 304.837C506.096 310.941 513.862 313.67 520.481 310.936L530.353 306.856C536.131 304.462 542.565 306.251 546.125 310.46C547.436 311.988 548.375 313.833 548.747 315.909L550.214 323.81C550.591 325.77 551.401 327.501 552.557 328.942C552.776 329.202 552.995 329.461 553.213 329.692C555.197 331.811 557.909 333.236 560.896 333.728C561.645 333.872 562.457 333.93 563.238 333.93C565.715 333.93 568.226 333.303 570.505 331.898C575.647 328.729 582.54 329.52 586.91 333.555L593.544 339.679C602.088 347.571 596.035 361.063 583.95 361.063Z" fill="#4094F2"/>
<path opacity="0.2" d="M592.9 344.214C591.561 342.375 590.754 340.233 589.314 338.458C586.338 334.788 580.886 334.049 576.249 334.767C573.128 335.25 570.186 336.283 566.974 336.017C564.47 335.81 561.977 335.445 559.544 334.855C554.765 333.695 549.924 331.534 547.243 327.528C544.575 323.543 545.846 318.268 542.693 314.487C539.301 310.421 533.461 310.804 528.753 312.393C526.116 313.284 523.775 314.779 521.128 315.619C518.022 316.603 514.687 316.728 511.491 316.053C509.837 315.704 508.236 315.162 506.715 314.471C505.773 314.043 504.912 313.576 504.246 312.811C503.152 311.551 502.742 309.885 502.805 308.297C502.844 307.33 503.076 306.365 503.475 305.477C506.668 311.124 514.101 313.573 520.479 310.937L530.352 306.857C536.129 304.464 542.563 306.252 546.123 310.461C547.434 311.989 548.373 313.835 548.746 315.91L550.213 323.811C550.589 325.772 551.399 327.502 552.555 328.943C552.774 329.204 552.993 329.463 553.212 329.693C555.195 331.812 557.908 333.237 560.894 333.73C561.643 333.873 562.455 333.932 563.236 333.932C565.713 333.932 568.224 333.305 570.504 331.899C575.646 328.731 582.538 329.521 586.909 333.556L593.542 339.681C595.952 341.908 597.201 344.579 597.479 347.269C595.575 346.879 594.028 345.764 592.9 344.214Z" fill="#F2FAFF"/>
<path opacity="0.25" d="M563.768 361.063H355.276L358.556 350.51C368.862 341.975 383.102 337.795 397.592 340.103L405.307 341.313L409.46 341.948C410.365 342.092 411.271 342.15 412.146 342.15C414.082 342.15 415.988 341.833 417.768 341.198C420.765 340.132 423.39 338.256 425.262 335.662C427.885 332.001 430.978 328.887 434.35 326.32C435.661 325.283 437.003 324.359 438.409 323.522C445.999 318.881 454.71 316.575 463.456 316.488C468.577 316.401 473.668 317.094 478.54 318.564C490.375 322.024 500.868 329.895 506.709 341.861L508.74 345.956C512.33 353.309 521.668 356.567 529.601 353.279L535.597 350.799L541.375 348.406C543.998 347.31 546.747 346.965 549.37 347.195C556.178 347.8 562.175 352.471 563.424 359.246L563.768 361.063Z" fill="#F2FAFF"/>
<path d="M535.495 322.149C535.495 324.221 533.676 325.901 531.431 325.901C529.186 325.901 527.367 324.22 527.367 322.149C527.367 320.076 529.188 318.395 531.431 318.395C533.675 318.396 535.495 320.076 535.495 322.149Z" fill="#100959"/>
<path opacity="0.15" d="M534.554 323.038C534.554 325.11 532.733 326.79 530.49 326.79C528.245 326.79 526.426 325.109 526.426 323.038C526.426 320.965 528.246 319.284 530.49 319.284C532.733 319.284 534.554 320.965 534.554 323.038Z" fill="#202234"/>
<path d="M476.549 350.814C476.549 352.887 474.73 354.566 472.485 354.566C470.239 354.566 468.419 352.886 468.419 350.814C468.419 348.741 470.239 347.061 472.485 347.061C474.73 347.061 476.549 348.741 476.549 350.814Z" fill="#394CA4"/>
<path opacity="0.15" d="M492.147 303.109C492.147 307.104 488.639 310.341 484.314 310.341C479.987 310.341 476.479 307.103 476.479 303.109C476.479 299.116 479.987 295.876 484.314 295.876C488.639 295.876 492.147 299.115 492.147 303.109Z" fill="#202234"/>
<path d="M491.165 300.538C491.165 304.533 487.658 307.77 483.332 307.77C479.005 307.77 475.497 304.533 475.497 300.538C475.497 296.544 479.005 293.305 483.332 293.305C487.657 293.306 491.165 296.544 491.165 300.538Z" fill="#394CA4"/>
<path d="M535.346 359.088C535.346 359.088 517.015 337.748 525.383 336.277C533.753 334.806 536.541 345.844 535.346 359.088Z" fill="#100959"/>
<path opacity="0.5" d="M534.757 345.969C533.903 345.782 533.37 345.23 533.002 344.518C532.266 343.087 532.319 341.409 531.475 340.02C531.048 339.321 530.387 338.785 529.601 338.452C528.824 338.122 527.96 337.956 527.223 337.554C526.509 337.165 526.378 336.69 526.931 336.147C531.309 336.202 533.895 340.132 534.989 346.007C534.911 345.993 534.834 345.986 534.757 345.969Z" fill="#F2FAFF"/>
<path d="M535.346 359.088C535.346 359.088 546.902 330.389 559.653 337.748C572.406 345.107 535.346 359.088 535.346 359.088Z" fill="#394CA4"/>
<path opacity="0.2" d="M559.135 337.492C559.002 337.768 558.704 338.019 558.475 338.106C557.966 338.298 557.31 338.223 556.772 338.214C555.587 338.193 554.368 338.116 553.199 338.332C551.941 338.565 550.74 339.237 549.702 339.912C547.799 341.153 546.57 343.085 544.615 344.244C544.299 344.431 543.85 344.637 543.343 344.816C547.632 339.109 553.238 334.53 559.135 337.492Z" fill="#F2FAFF"/>
<path d="M535.346 359.088C535.346 359.088 492.706 354.304 503.466 348.05C514.225 341.795 535.346 359.088 535.346 359.088Z" fill="#394CA4"/>
<path opacity="0.2" d="M521.107 350.352C519.851 350.139 518.928 349.457 517.858 348.869C516.847 348.313 515.751 347.863 514.597 347.638C512.961 347.321 511.316 347.706 509.674 347.499C509.1 347.427 508.427 347.245 508.21 346.719C512.468 346.477 517.393 348.189 521.872 350.418C521.618 350.409 521.363 350.395 521.107 350.352Z" fill="#F2FAFF"/>
<path d="M186.55 123.67C186.55 123.67 204.205 137.032 211.451 137.485C219.302 137.978 240.376 126.024 240.376 126.024L244.839 132.081C244.839 132.081 219.403 152.593 208.362 152.626C198.606 152.654 175.031 133.89 175.031 133.89L186.55 123.67Z" fill="#FB8A77"/>
<path d="M240.376 126.025L243.626 123.548C243.626 123.548 243.777 111.526 245.578 113.049C247.381 114.574 248.39 116.794 248.39 116.794C248.39 116.794 250.984 111.798 253.537 113.408C256.09 115.02 261.51 120.971 258.871 122.858C256.232 124.747 256.554 128.257 252.79 127.758C249.832 127.365 244.839 132.081 244.839 132.081L240.376 126.025Z" fill="#FB8A77"/>
<path d="M159.954 360.999C162.402 359.986 165.179 360.061 167.226 360.346C168.697 360.551 169.997 361.271 171.149 362.199C174.237 364.687 183.147 365.152 185.142 367.134C187.423 369.4 183.241 370.91 183.241 370.91H160.627C157.023 371.476 157.387 369.588 157.387 369.588C157.387 369.588 155.391 362.888 159.954 360.999Z" fill="#231F20"/>
<path d="M168.464 350.784V363.801C168.464 363.801 164.144 366.74 159.824 363.801V350.784H168.464Z" fill="#FF8D7D"/>
<path d="M145.423 181.573L152.7 273.285L158.711 360.161L169.672 358.667L179.987 267.459L168.464 181.573H145.423Z" fill="#202234"/>
<path d="M116.239 361.717C118.836 361.123 121.593 361.583 123.59 362.136C125.025 362.535 126.211 363.383 127.218 364.407C129.916 367.149 138.729 368.834 140.417 370.953C142.344 373.375 137.941 374.186 137.941 374.186L115.389 371.003C111.71 371.021 112.361 369.322 112.361 369.322C112.361 369.322 111.398 362.825 116.239 361.717Z" fill="#231F20"/>
<path d="M127.078 350.784L124.144 363.801C124.144 363.801 119.824 366.74 115.502 363.801L118.436 350.784H127.078Z" fill="#FF8D7D"/>
<path d="M128.444 186.507C128.444 186.507 121.167 194.345 121.773 213.38C122.38 232.416 121.738 262.087 121.738 262.087L116.52 355.708C116.52 355.708 124.539 359.875 127.077 358.318C152.619 342.669 152.7 246.971 152.7 246.971C152.7 246.971 163.008 184.268 156.337 182.028C149.668 179.79 128.444 186.507 128.444 186.507Z" fill="#232B57"/>
<path d="M173.008 142.355C173.008 142.355 184.839 145.639 186.885 144.168C188.932 142.698 196.01 127.932 193.935 126.603C191.86 125.274 170.632 113.226 158.586 112.915C158.584 112.915 176.419 134.098 173.008 142.355Z" fill="#4094F2"/>
<path opacity="0.25" d="M193.935 126.603C193.124 126.084 189.385 123.925 184.413 121.471C183.879 122.095 183.413 122.769 182.946 123.433C182.254 124.419 181.571 125.415 180.783 126.34C180.055 127.194 179.219 128.011 178.186 128.553C177.183 129.081 176.042 129.27 174.902 129.09C174.592 129.041 174.26 128.984 173.978 128.851C173.675 128.709 173.406 128.505 173.151 128.299C172.522 127.787 171.968 127.203 171.341 126.691C170.665 126.138 169.867 125.759 169.042 125.425C168.462 125.19 167.863 124.996 167.259 124.826C171.216 131.089 174.69 138.289 173.01 142.355C173.01 142.355 184.841 145.639 186.886 144.168C188.932 142.7 196.008 127.934 193.935 126.603Z" fill="#231F20"/>
<path d="M148.454 110.369C175.741 109.688 175.741 142.84 175.741 142.84C175.741 142.84 181.321 182.309 171.192 189.869C162.291 196.512 132.688 198.025 125.411 189.869C117.699 181.227 125.411 145.081 125.411 145.081C125.411 145.081 116.539 111.163 148.454 110.369Z" fill="#4094F2"/>
<path opacity="0.25" d="M158.509 189.418C157.151 188.553 155.554 188.357 153.94 188.384C152.212 188.414 150.493 188.595 148.765 188.453C147.214 188.326 145.729 187.951 144.328 187.326C142.972 186.718 141.67 186.003 140.399 185.254C137.489 183.542 134.623 181.625 132.201 179.344C131.141 178.346 130.241 177.286 129.645 175.992C128.784 174.124 128.483 172.088 128.474 170.071C128.457 165.651 129.669 161.318 129.721 156.9C129.799 150.315 128.641 143.836 127.374 137.376C127.001 137.602 126.644 137.85 126.299 138.111C125.678 138.581 125.091 139.09 124.506 139.599C124.837 142.884 125.411 145.078 125.411 145.078C125.411 145.078 117.699 181.224 125.411 189.866C130.947 196.071 149.405 196.678 161.839 193.69C161.15 192.007 160.13 190.451 158.509 189.418Z" fill="#231F20"/>
<path d="M124.279 142.773L112.073 166.353L130.567 189.867L126.37 195.737C126.37 195.737 97.8689 176.849 95.3968 166.913C93.2133 158.133 110.986 134.684 110.986 134.684L124.279 142.773Z" fill="#FB8A77"/>
<path d="M130.568 189.867L138.498 192.988C138.498 192.988 146.637 191.582 145.425 193.543C144.212 195.502 142.088 195.046 142.088 195.046C142.088 195.046 147.939 196.279 146.801 198.932C145.663 201.586 140.573 207.782 137.995 205.822C135.418 203.862 131.931 204.527 131.628 201.028C131.39 198.277 126.369 195.736 126.369 195.736L130.568 189.867Z" fill="#FB8A77"/>
<path d="M125.412 145.079L119.954 150.117C119.954 150.117 102.521 142.909 102.521 139.76C102.521 136.611 119.05 116.138 133.881 114.235C140.684 113.362 125.412 145.079 125.412 145.079Z" fill="#4094F2"/>
<path d="M124.403 347.225L138.407 267.498L138.412 208.522C146.208 206.152 149.73 195.435 149.878 194.977L149.369 194.838C149.333 194.948 145.723 205.934 138.069 208.109L137.882 208.162V267.459L123.883 347.147L124.403 347.225Z" fill="#726658"/>
<path opacity="0.5" d="M164.41 349.301C164.945 341.442 169.617 272.485 168.696 270.928C167.991 269.734 160.242 239.73 156.243 224.032L155.725 224.144C156.2 226 167.315 269.611 168.231 271.162C168.913 272.847 165.321 328.116 163.879 349.27L164.41 349.301Z" fill="#726658"/>
<path d="M169.49 127.712C164.798 130.008 159.341 131.695 154.215 131.253C151.654 131.033 149.492 129.8 147.156 128.677C144.863 127.577 142.134 126.832 139.979 128.712C139.551 129.086 139.138 128.242 139.561 127.872C143.792 124.181 148.603 129.191 152.828 130.077C155.619 130.662 158.569 130.217 161.328 129.598C164.055 128.987 166.709 128.026 169.27 126.774C169.761 126.534 169.977 127.474 169.49 127.712ZM170.572 136.674C167.827 137.162 165.083 137.651 162.337 138.139C159.779 138.594 157.127 139.356 154.536 139.432C152.15 139.504 150.458 137.544 148.248 136.849C145.745 136.063 143.1 136.376 140.558 136.674C140.028 136.735 140.031 135.764 140.558 135.701C142.844 135.433 145.162 135.188 147.441 135.647C148.517 135.864 149.548 136.266 150.523 136.846C151.716 137.559 152.777 138.4 154.165 138.46C155.538 138.519 156.948 138.118 158.302 137.879C159.574 137.653 160.845 137.427 162.118 137.199C164.862 136.712 167.607 136.222 170.351 135.734C170.873 135.644 171.097 136.581 170.572 136.674ZM168.834 144.327C164.311 145.852 159.587 146.983 154.878 146.109C152.56 145.68 150.33 144.794 148.151 143.798C145.8 142.727 143.437 141.538 140.859 141.896C140.331 141.969 140.336 140.996 140.859 140.925C143.105 140.612 145.223 141.425 147.293 142.364C149.485 143.361 151.673 144.356 153.982 144.928C158.9 146.147 163.867 144.99 168.615 143.388C169.127 143.216 169.346 144.153 168.834 144.327Z" fill="white"/>
<path d="M144.441 96.8718L143.092 111.808C143.092 111.808 148.242 118.62 153.168 113.402L152.844 103.381L144.441 96.8718Z" fill="#FB8A77"/>
<path opacity="0.15" d="M148.867 113.663C149.915 111.951 150.281 109.364 148.58 107.883C147.891 107.283 147.005 106.916 146.34 106.29C145.515 105.512 145.346 104.316 145.445 103.274C145.606 101.576 146.356 99.91 146.196 98.2307L152.842 103.379L153.166 113.401C151.242 115.438 149.286 115.638 147.614 115.128C148.097 114.708 148.525 114.223 148.867 113.663Z" fill="#33133F"/>
<path d="M165.55 81.2002C165.55 81.2002 166.905 105.16 156.605 106.076C146.305 106.994 141.592 97.0424 141.592 97.0424C141.592 97.0424 139.712 98.1589 139.227 96.4123C138.743 94.6657 136.423 91.611 138.662 90.4047C140.902 89.1983 141.661 91.1081 141.661 91.1081L140.292 85.6991C140.294 85.6991 165.132 73.3531 165.55 81.2002Z" fill="#FB8A77"/>
<path opacity="0.05" d="M140.764 91.6125C140.764 91.6125 139.392 90.9569 138.869 91.9447C138.343 92.931 139.609 96.6473 141.203 96.1713C141.203 96.1713 139.123 95.3766 139.326 93.0912C139.525 90.8043 140.423 92.3443 140.764 91.6125Z" fill="#33133F"/>
<path d="M141.004 90.5633C141.747 91.5466 147.863 81.5773 152.188 83.6592C156.514 85.741 161.718 84.9688 163.264 82.9662C164.811 80.9622 169.348 81.2002 165.638 75.3572C158.873 64.7039 125.711 70.2895 141.004 90.5633Z" fill="#202234"/>
<path opacity="0.05" d="M147.235 94.956C147.113 95.622 147.9 96.2985 148.989 96.4677C150.08 96.6383 151.061 96.2357 151.182 95.5697C151.304 94.9051 150.519 94.2272 149.428 94.058C148.339 93.8889 147.357 94.2915 147.235 94.956ZM159.586 95.0189C159.464 95.6849 160.249 96.3614 161.34 96.5305C162.431 96.6996 163.413 96.2985 163.535 95.6325C163.656 94.9665 162.87 94.29 161.781 94.1209C160.69 93.9518 159.707 94.3544 159.586 95.0189Z" fill="#33133F"/>
<path d="M159.064 88.7628C159.17 88.7628 159.272 88.7119 159.328 88.6221C159.377 88.5428 160.556 86.7453 163.448 87.9277C163.484 87.9426 163.524 87.9507 163.564 87.9516C163.604 87.9525 163.643 87.946 163.681 87.9327C163.718 87.9193 163.752 87.8994 163.781 87.8738C163.81 87.8483 163.833 87.8178 163.85 87.784C163.866 87.7502 163.875 87.7138 163.876 87.6768C163.876 87.6399 163.869 87.6031 163.855 87.5686C163.841 87.5342 163.819 87.5027 163.791 87.4759C163.764 87.4492 163.731 87.4277 163.694 87.4128C160.285 86.0179 158.813 88.3183 158.798 88.3407C158.716 88.4754 158.768 88.6476 158.912 88.7254C158.96 88.7523 159.012 88.7628 159.064 88.7628ZM153.151 88.8122C153.19 88.8122 153.227 88.8047 153.264 88.7912C153.42 88.7329 153.496 88.5712 153.434 88.4275C153.423 88.4021 152.316 85.9446 148.307 86.7393C148.228 86.755 148.159 86.7989 148.115 86.8614C148.071 86.924 148.055 87.0001 148.072 87.0731C148.08 87.1092 148.096 87.1435 148.119 87.174C148.141 87.2045 148.17 87.2305 148.204 87.2505C148.237 87.2706 148.275 87.2843 148.314 87.2908C148.354 87.2973 148.394 87.2966 148.433 87.2886C151.919 86.5986 152.83 88.5518 152.867 88.6356C152.917 88.7463 153.031 88.8122 153.151 88.8122ZM156.623 95.9214C156.728 95.9214 156.832 95.9079 156.934 95.8809C157.581 95.7073 157.855 95.0353 157.866 95.0069C157.899 94.9231 157.887 94.8303 157.835 94.7555C156.746 93.2109 157.033 91.1126 157.035 91.0916C157.057 90.9375 156.941 90.7968 156.774 90.7758C156.613 90.7519 156.453 90.8626 156.432 91.0168C156.417 91.1081 156.124 93.2274 157.234 94.9291C157.147 95.0772 156.983 95.2823 156.762 95.3392C156.555 95.393 156.305 95.3182 156.018 95.1147C155.885 95.0204 155.694 95.0443 155.592 95.167C155.49 95.2913 155.516 95.4664 155.649 95.5607C155.983 95.8016 156.31 95.9214 156.623 95.9214Z" fill="#202234"/>
<path d="M141.176 84.8071C141.176 84.8071 140.83 94.4247 147.449 99.898C147.449 99.898 148.14 96.3913 155.794 97.4001C163.449 98.4088 162.296 100.588 162.296 100.588C162.296 100.588 164.156 100.311 165.238 90.475C165.071 96.6817 164.81 98.4238 164.81 98.4238C164.81 98.4238 163.621 105.317 157.29 106.539C150.96 107.762 141.667 104.388 141.651 96.8822C141.651 96.8822 142.096 91.9268 140.658 89.0577C139.219 86.1885 138.528 85.0212 141.176 84.8071Z" fill="#202234"/>
<path d="M158.583 98.7516C158.583 98.7516 155.106 100.206 151.211 98.5331C150.327 100.027 154.944 103.917 158.583 98.7516Z" fill="#FCFAF7"/>
<path d="M159.988 91.0961C159.988 91.9732 160.515 92.6841 161.165 92.6841C161.815 92.6841 162.341 91.9732 162.341 91.0961C162.341 90.2191 161.814 89.5096 161.165 89.5096C160.515 89.5096 159.988 90.2206 159.988 91.0961ZM149.401 91.0961C149.401 91.9732 149.928 92.6841 150.578 92.6841C151.228 92.6841 151.755 91.9732 151.755 91.0961C151.755 90.2191 151.228 89.5096 150.578 89.5096C149.928 89.5096 149.401 90.2206 149.401 91.0961Z" fill="#202234"/>
<path d="M427.875 121.471H194.113C186.314 121.471 179.992 127.308 179.992 134.508V216.839C179.992 224.039 186.314 229.876 194.113 229.876H427.897C435.684 229.876 441.996 224.048 441.996 216.858V134.508C441.995 127.308 435.673 121.471 427.875 121.471Z" fill="#6EA4FE"/>
<path d="M397.487 175.891C397.487 175.891 396.873 186.47 405.883 185.63C414.893 184.79 442.005 200.722 442.005 200.722V174.434L397.487 175.891Z" fill="#5994EA"/>
<path d="M452.469 148.466L446.727 168.26L414.35 172.907L414.092 179.211C414.092 179.211 442.815 183.445 450.89 178.807C458.024 174.709 465.94 151.063 465.94 151.063L452.469 148.466Z" fill="#FB8A77"/>
<path d="M479.415 361.018C477.463 360.363 475.296 360.51 473.704 360.785C472.561 360.983 471.571 361.55 470.704 362.264C468.379 364.175 461.428 364.81 459.938 366.317C458.236 368.039 461.561 368.999 461.561 368.999L479.246 368.247C482.085 368.539 481.733 367.179 481.733 367.179C481.733 367.179 483.051 362.24 479.415 361.018Z" fill="#231F20"/>
<path d="M472.748 354.298L473.173 362.808C473.173 362.808 476.092 364.61 478.822 362.569L478.397 354.059L472.748 354.298Z" fill="#FB8A77"/>
<path d="M501.132 204.307C501.132 204.307 512.429 213.646 508.354 230.52C504.279 247.393 484.949 287.827 484.949 287.827L480.9 357.949L471.182 358.073L460.833 279.519C460.833 279.519 470.734 196.84 477.097 195.9C483.458 194.959 501.132 204.307 501.132 204.307Z" fill="#202234"/>
<path d="M575.819 342.66C573.824 343.06 572.104 344.232 570.937 345.233C570.1 345.951 569.596 346.902 569.28 347.917C568.434 350.633 563.013 354.526 562.63 356.501C562.194 358.758 565.505 357.946 565.505 357.946L579.786 348.755C582.313 347.623 581.247 346.661 581.247 346.661C581.247 346.661 579.538 341.915 575.819 342.66Z" fill="#231F20"/>
<path d="M566.456 340.3L571.645 347.173C571.645 347.173 575.098 347.257 576.207 344.236L571.018 337.364L566.456 340.3Z" fill="#FB8A77"/>
<path d="M515.156 197.207C515.156 197.207 517.237 195.49 525.281 211.102C529.822 219.914 530.123 239.087 530.123 239.087L541.068 271.823L574.846 341.083L568.998 344.905L516.569 279.943C516.569 279.943 471.621 202.46 476.669 198.763C481.718 195.067 515.156 197.207 515.156 197.207Z" fill="#232B57"/>
<path d="M478.739 128.266C466.591 129.887 451.056 140.763 448.871 154.739L463.777 158.397C463.778 158.397 487.314 127.122 478.739 128.266Z" fill="#4094F2"/>
<path opacity="0.25" d="M460.145 157.505L457.198 156.782L467.315 136.966C467.315 136.967 464.153 155.101 460.145 157.505Z" fill="#231F20"/>
<path d="M472.341 205.578C472.341 205.578 476.612 176.824 471.584 171.705C466.555 166.586 456.8 165.608 460.799 155.481C464.767 145.355 470.826 132.684 477.917 128.377C480.402 126.893 489.49 126.139 489.49 126.139C489.49 126.139 511.515 120.154 513.332 127.622C514.089 130.699 514.12 141.272 514.423 153.411C514.634 162.026 514.937 171.452 515.665 179.564C516.453 187.956 517.664 194.893 519.724 198.052C524.934 206.054 472.341 205.578 472.341 205.578Z" fill="#4094F2"/>
<path d="M518.851 152.16L535.084 169.738L524.087 204.169L529.629 204.567C529.629 204.567 550.109 173.839 548.577 165.174C547.224 157.518 526.627 141.677 526.627 141.677L518.851 152.16Z" fill="#FB8A77"/>
<path d="M521.233 208.002C521.233 208.002 520.794 205.385 521.324 204.801C522.555 203.446 524.445 203.042 525.019 203.22C523.37 204.707 521.233 208.002 521.233 208.002Z" fill="#FB8A77"/>
<path opacity="0.2" d="M522.535 204.554C522.16 204.594 521.789 204.695 521.411 204.71C522.642 203.43 524.455 203.045 525.018 203.219C524.587 203.608 524.122 204.121 523.671 204.666C523.3 204.57 522.924 204.512 522.535 204.554Z" fill="white"/>
<path d="M529.637 207.742C529.42 208.233 529.174 208.713 528.9 209.144L528.901 209.146C528.9 209.147 528.9 209.147 528.9 209.15C528.887 209.173 528.828 209.291 528.741 209.461L528.739 209.463C528.669 209.599 528.577 209.762 528.473 209.934C528.473 209.934 527.444 211.941 526.721 211.91C525.998 211.877 525.87 211.388 525.87 211.388C525.87 211.388 525.364 211.837 524.746 211.558C524.129 211.28 524.155 210.816 524.155 210.816C524.155 210.816 523.701 211.243 522.997 210.928C522.294 210.614 522.26 209.957 522.26 209.957C522.26 209.957 521.53 210.56 520.931 209.59C520.332 208.625 521.37 207.299 521.405 207.237C521.551 206.976 521.707 206.727 521.867 206.494C521.911 206.431 521.944 206.359 522 206.305C526.051 202.429 528.715 193.845 529.738 193.691C529.738 193.691 534.436 194.583 534.423 195.68C534.021 196.631 529.627 204.569 529.627 204.569C529.627 204.569 530.451 205.901 529.637 207.742Z" fill="#FB8A77"/>
<path opacity="0.2" d="M528.901 209.144V209.15C528.888 209.173 528.829 209.291 528.742 209.461L528.74 209.463C528.67 209.599 528.578 209.762 528.474 209.934C528.474 209.934 527.445 211.941 526.722 211.91C525.999 211.877 525.871 211.388 525.871 211.388C525.871 211.388 525.365 211.837 524.747 211.558C524.13 211.28 524.156 210.816 524.156 210.816C524.156 210.816 523.702 211.243 522.998 210.928C522.295 210.614 522.261 209.957 522.261 209.957C522.261 209.957 521.531 210.56 520.931 209.59C520.716 209.243 520.714 208.849 520.8 208.486C521 208.863 521.333 209.224 521.745 209.393C521.851 209.436 521.964 209.466 522.081 209.47C522.214 209.476 522.345 209.448 522.476 209.444C522.763 209.433 522.943 209.64 523.134 209.81C523.381 210.032 523.644 210.225 523.984 210.295C524.24 210.348 524.503 210.328 524.762 210.327C525.034 210.324 525.303 210.359 525.535 210.503C525.756 210.641 525.958 210.776 526.223 210.831C526.68 210.928 527.106 210.737 527.435 210.452C527.662 210.255 527.837 210.017 528.019 209.785C528.254 209.482 528.482 209.174 528.711 208.867C529.103 208.342 529.496 207.824 529.816 207.258C529.767 207.423 529.707 207.585 529.638 207.743C529.421 208.233 529.175 208.712 528.901 209.144Z" fill="white"/>
<path opacity="0.25" d="M515.664 179.566C514.544 177.16 513.149 174.643 511.514 172.461C506.848 166.223 496.336 168.097 496.336 168.097C510.484 164.88 511.151 157.915 511.151 157.915C512.029 156.237 513.271 154.67 514.424 153.411C514.634 162.028 514.938 171.454 515.664 179.566Z" fill="#231F20"/>
<path d="M509.863 124.514C509.863 124.514 527.16 132.458 533.754 145.684C533.754 145.684 525.983 153.551 520.086 155.394L513.151 150.683L509.863 124.514Z" fill="#4094F2"/>
<path d="M494.22 125.061L496.272 124.514C496.272 124.514 500.592 133.703 488.995 134.963C477.398 136.224 475.124 132.759 475.124 132.759C475.124 132.759 474.367 129.87 477.307 128.553C480.248 127.236 494.22 125.061 494.22 125.061Z" fill="#F56F58"/>
<path d="M484.251 88.2899C482.017 88.8511 473.641 88.8496 470.401 93.3067C466.883 97.9883 471.138 106.217 465.847 107.131C460.11 107.232 462.587 113.829 467.437 116.719C469.791 118.166 475.222 119.136 477.666 120.387C481.602 122.778 488.876 124.008 494.352 123.143C499.87 122.438 503.593 119.638 501.41 117.674C496.916 112.828 503.669 111.075 499.177 105.916C495.558 101.363 497.316 100.061 496.274 97.9598C493.047 91.0273 489.939 87.7032 484.251 88.2899Z" fill="#231F20"/>
<path d="M489.534 113.169L491.091 127.428C491.091 127.428 486.29 134.018 481.488 129.105L481.618 119.519L489.534 113.169Z" fill="#F18A66"/>
<path opacity="0.15" d="M485.602 129.288C484.57 127.667 484.174 125.201 485.772 123.758C486.419 123.174 487.262 122.809 487.885 122.201C488.659 121.446 488.799 120.299 488.687 119.305C488.502 117.683 487.757 116.102 487.878 114.495L481.616 119.518L481.486 129.104C483.362 131.023 485.236 131.183 486.824 130.671C486.358 130.276 485.939 129.818 485.602 129.288Z" fill="#33133F"/>
<path d="M469.073 98.5106C469.073 98.5106 468.207 121.437 478.071 122.155C487.934 122.875 492.261 113.289 492.261 113.289C492.261 113.289 494.078 114.327 494.511 112.65C494.943 110.972 497.106 108.017 494.943 106.898C492.781 105.78 492.089 107.618 492.089 107.618L493.3 102.426C493.298 102.424 469.332 91.0018 469.073 98.5106Z" fill="#F18A66"/>
<path opacity="0.05" d="M493.044 107.932C493.044 107.932 494.342 107.284 494.861 108.219C495.381 109.155 494.238 112.727 492.706 112.295C492.706 112.295 494.679 111.503 494.446 109.323C494.212 107.142 493.382 108.628 493.044 107.932ZM487.064 113.464C487.179 114.1 486.428 114.746 485.386 114.91C484.343 115.071 483.403 114.688 483.288 114.052C483.171 113.416 483.922 112.768 484.966 112.606C486.008 112.443 486.947 112.828 487.064 113.464ZM475.254 113.524C475.371 114.16 474.62 114.808 473.576 114.969C472.534 115.131 471.594 114.748 471.479 114.11C471.362 113.474 472.113 112.826 473.157 112.665C474.199 112.503 475.137 112.888 475.254 113.524Z" fill="#33133F"/>
<path d="M475.753 107.541C475.653 107.541 475.554 107.494 475.501 107.407C475.452 107.33 474.325 105.611 471.561 106.744C471.414 106.805 471.242 106.742 471.177 106.606C471.112 106.47 471.179 106.311 471.326 106.251C474.586 104.918 475.993 107.116 476.008 107.139C476.033 107.18 476.046 107.226 476.046 107.274C476.046 107.321 476.032 107.367 476.006 107.408C475.981 107.449 475.944 107.483 475.899 107.506C475.855 107.529 475.805 107.542 475.753 107.541ZM481.408 107.589C481.372 107.589 481.335 107.583 481.299 107.57C481.264 107.557 481.231 107.538 481.204 107.513C481.176 107.488 481.155 107.459 481.14 107.427C481.125 107.394 481.117 107.359 481.116 107.324C481.116 107.289 481.123 107.254 481.137 107.221C481.147 107.197 482.207 104.85 486.039 105.606C486.196 105.638 486.297 105.78 486.263 105.927C486.229 106.072 486.075 106.165 485.916 106.133C482.585 105.473 481.712 107.341 481.677 107.422C481.631 107.527 481.523 107.589 481.408 107.589ZM478.088 114.386C477.987 114.386 477.888 114.372 477.791 114.347C477.173 114.181 476.912 113.539 476.901 113.512C476.869 113.432 476.88 113.343 476.93 113.272C477.976 111.791 477.699 109.789 477.695 109.77C477.685 109.699 477.706 109.628 477.753 109.571C477.799 109.515 477.869 109.477 477.945 109.468C478.109 109.448 478.251 109.552 478.272 109.698C478.285 109.786 478.566 111.811 477.504 113.438C477.588 113.579 477.744 113.775 477.955 113.832C478.151 113.884 478.391 113.813 478.666 113.618C478.794 113.528 478.978 113.551 479.075 113.667C479.172 113.786 479.148 113.955 479.021 114.044C478.699 114.272 478.386 114.386 478.088 114.386Z" fill="#231F20"/>
<path d="M476.214 117.092C476.214 117.092 479.539 118.482 483.262 116.884C484.107 118.312 479.694 122.031 476.214 117.092Z" fill="#FCFAF7"/>
<path d="M474.869 109.773C474.869 110.611 474.367 111.291 473.744 111.291C473.122 111.291 472.619 110.611 472.619 109.773C472.619 108.935 473.123 108.255 473.744 108.255C474.365 108.255 474.869 108.935 474.869 109.773ZM484.991 109.773C484.991 110.611 484.487 111.291 483.866 111.291C483.245 111.291 482.741 110.611 482.741 109.773C482.741 108.935 483.245 108.255 483.866 108.255C484.487 108.255 484.991 108.935 484.991 109.773Z" fill="#231F20"/>
<path opacity="0.05" d="M480.525 120.902C480.217 120.902 480.016 120.86 479.997 120.856C479.959 120.847 479.927 120.826 479.907 120.795C479.887 120.765 479.88 120.729 479.888 120.694C479.908 120.622 479.986 120.577 480.063 120.594C480.076 120.597 481.355 120.859 482.514 119.931C482.544 119.908 482.582 119.896 482.62 119.899C482.659 119.901 482.695 119.918 482.72 119.944C482.772 120.001 482.766 120.087 482.706 120.134C481.898 120.779 481.052 120.902 480.525 120.902Z" fill="#33133F"/>
<path d="M473.563 94.748C473.623 93.7856 473.571 93.1585 473.571 93.1585C463.318 93.9967 468.251 103.822 468.251 103.822C471.81 102.179 473.017 98.7052 473.41 96.1668C476.165 99.6481 484.789 103.816 494.427 103.996L495.635 102.025L473.563 94.748Z" fill="#231F20"/>
<path d="M472.606 94.5594C473.051 97.2115 475.109 99.5283 477.303 101.172C480.19 103.336 483.775 104.651 487.488 104.88C489.97 105.035 492.45 104.677 494.799 103.936C495.24 103.797 495.05 103.147 494.606 103.288C490.759 104.502 486.629 104.571 482.792 103.285C479.746 102.266 476.891 100.425 475.006 97.9703C474.179 96.8957 473.53 95.6924 473.31 94.3798C473.239 93.9547 472.537 94.1358 472.606 94.5594Z" fill="#33133F"/>
<path d="M258.396 159.738V188.587H256.118V174.865H235.227V188.587H232.953V159.738H235.227V173.007H256.118V159.738H258.396ZM291.964 186.691V188.587H270.403V159.738H291.293V161.634H272.68V173.009H289.33V174.865H272.68V186.693H291.964V186.691ZM301.381 159.738H303.659V186.691H321.647V188.587H301.381V159.738ZM328.611 159.738H330.886V186.691H348.876V188.587H328.61V159.738H328.611ZM360.168 186.877C357.698 185.599 355.758 183.848 354.344 181.622C352.93 179.396 352.225 176.91 352.225 174.163C352.225 171.416 352.93 168.929 354.344 166.705C355.758 164.478 357.698 162.728 360.168 161.45C362.639 160.172 365.406 159.533 368.473 159.533C371.537 159.533 374.304 160.166 376.775 161.429C379.245 162.694 381.185 164.437 382.599 166.664C384.013 168.89 384.718 171.389 384.718 174.164C384.718 176.939 384.013 179.44 382.599 181.665C381.185 183.891 379.245 185.636 376.775 186.901C374.304 188.165 371.537 188.797 368.473 188.797C365.406 188.793 362.639 188.153 360.168 186.877ZM375.57 185.208C377.681 184.109 379.349 182.59 380.569 180.654C381.787 178.715 382.398 176.553 382.398 174.161C382.398 171.771 381.787 169.607 380.569 167.67C379.349 165.733 377.681 164.216 375.57 163.116C373.456 162.017 371.09 161.468 368.471 161.468C365.852 161.468 363.479 162.019 361.35 163.116C359.222 164.214 357.549 165.733 356.328 167.67C355.108 169.607 354.496 171.771 354.496 174.161C354.496 176.553 355.108 178.715 356.328 180.654C357.549 182.59 359.222 184.108 361.35 185.208C363.479 186.308 365.85 186.856 368.471 186.856C371.09 186.856 373.456 186.308 375.57 185.208Z" fill="white"/>
<g opacity="0.25">
<path d="M342.982 92.8921C342.982 93.5701 343.577 94.1194 344.311 94.1194C345.045 94.1194 345.639 93.5701 345.639 92.8921C345.639 92.2141 345.044 91.6649 344.311 91.6649C343.577 91.6664 342.982 92.2156 342.982 92.8921ZM335.274 92.8921C335.274 93.5701 335.868 94.1194 336.603 94.1194C337.336 94.1194 337.932 93.5701 337.932 92.8921C337.932 92.2141 337.337 91.6649 336.603 91.6649C335.868 91.6664 335.274 92.2156 335.274 92.8921ZM327.565 92.8921C327.565 93.5701 328.16 94.1194 328.895 94.1194C329.627 94.1194 330.224 93.5701 330.224 92.8921C330.224 92.2141 329.629 91.6649 328.895 91.6649C328.159 91.6664 327.565 92.2156 327.565 92.8921Z" fill="#4094F2"/>
<path d="M321.185 94.1194C321.919 94.1194 322.514 93.5699 322.514 92.8921C322.514 92.2143 321.919 91.6649 321.185 91.6649C320.451 91.6649 319.855 92.2143 319.855 92.8921C319.855 93.5699 320.451 94.1194 321.185 94.1194Z" fill="#4094F2"/>
<path d="M313.477 94.1194C314.211 94.1194 314.806 93.5699 314.806 92.8921C314.806 92.2143 314.211 91.6649 313.477 91.6649C312.743 91.6649 312.147 92.2143 312.147 92.8921C312.147 93.5699 312.743 94.1194 313.477 94.1194Z" fill="#4094F2"/>
<path d="M340.557 98.9506C340.557 99.6286 341.152 100.178 341.884 100.178C342.619 100.178 343.214 99.6286 343.214 98.9506C343.214 98.2726 342.619 97.7249 341.884 97.7249C341.152 97.7234 340.557 98.2726 340.557 98.9506ZM332.849 98.9506C332.849 99.6286 333.444 100.178 334.178 100.178C334.912 100.178 335.507 99.6286 335.507 98.9506C335.507 98.2726 334.912 97.7249 334.178 97.7249C333.444 97.7234 332.849 98.2726 332.849 98.9506ZM325.141 98.9506C325.141 99.6286 325.736 100.178 326.47 100.178C327.204 100.178 327.799 99.6286 327.799 98.9506C327.799 98.2726 327.204 97.7249 326.47 97.7249C325.736 97.7234 325.141 98.2726 325.141 98.9506ZM317.432 98.9506C317.432 99.6286 318.027 100.178 318.762 100.178C319.496 100.178 320.089 99.6286 320.089 98.9506C320.089 98.2726 319.494 97.7249 318.762 97.7249C318.027 97.7234 317.432 98.2726 317.432 98.9506ZM309.724 98.9506C309.724 99.6286 310.319 100.178 311.054 100.178C311.788 100.178 312.383 99.6286 312.383 98.9506C312.383 98.2726 311.788 97.7249 311.054 97.7249C310.319 97.7234 309.724 98.2726 309.724 98.9506ZM302.015 98.9506C302.015 99.6286 302.61 100.178 303.344 100.178C304.078 100.178 304.673 99.6286 304.673 98.9506C304.673 98.2726 304.078 97.7249 303.344 97.7249C302.611 97.7234 302.015 98.2726 302.015 98.9506Z" fill="#4094F2"/>
</g>
<g opacity="0.25">
<path d="M242.395 282.854C243.129 282.854 243.724 282.304 243.724 281.626C243.724 280.948 243.129 280.401 242.395 280.401C241.66 280.401 241.065 280.95 241.065 281.626C241.065 282.304 241.66 282.854 242.395 282.854ZM242.395 289.97C243.129 289.97 243.724 289.421 243.724 288.743C243.724 288.066 243.129 287.516 242.395 287.516C241.66 287.516 241.065 288.065 241.065 288.743C241.065 289.421 241.66 289.97 242.395 289.97ZM242.395 297.087C243.129 297.087 243.724 296.538 243.724 295.86C243.724 295.183 243.129 294.632 242.395 294.632C241.66 294.632 241.065 295.182 241.065 295.86C241.065 296.539 241.66 297.087 242.395 297.087Z" fill="#4094F2"/>
<path d="M242.395 304.205C243.129 304.205 243.724 303.656 243.724 302.978C243.724 302.3 243.129 301.75 242.395 301.75C241.661 301.75 241.065 302.3 241.065 302.978C241.065 303.656 241.661 304.205 242.395 304.205Z" fill="#4094F2"/>
<path d="M242.395 311.322C243.129 311.322 243.724 310.772 243.724 310.094C243.724 309.417 243.129 308.867 242.395 308.867C241.661 308.867 241.065 309.417 241.065 310.094C241.065 310.772 241.661 311.322 242.395 311.322Z" fill="#4094F2"/>
<path d="M248.956 285.091C249.69 285.091 250.285 284.542 250.285 283.865C250.285 283.187 249.69 282.638 248.956 282.638C248.221 282.638 247.628 283.187 247.628 283.865C247.628 284.543 248.221 285.091 248.956 285.091ZM248.956 292.209C249.69 292.209 250.285 291.66 250.285 290.982C250.285 290.304 249.69 289.755 248.956 289.755C248.221 289.755 247.628 290.304 247.628 290.982C247.628 291.66 248.221 292.209 248.956 292.209ZM248.956 299.326C249.69 299.326 250.285 298.777 250.285 298.099C250.285 297.421 249.69 296.871 248.956 296.871C248.221 296.871 247.628 297.421 247.628 298.099C247.628 298.777 248.221 299.326 248.956 299.326ZM248.956 306.442C249.69 306.442 250.285 305.893 250.285 305.215C250.285 304.537 249.69 303.989 248.956 303.989C248.221 303.989 247.628 304.539 247.628 305.215C247.628 305.893 248.221 306.442 248.956 306.442ZM248.956 313.559C249.69 313.559 250.285 313.01 250.285 312.332C250.285 311.654 249.69 311.105 248.956 311.105C248.221 311.105 247.628 311.654 247.628 312.332C247.628 313.01 248.221 313.559 248.956 313.559ZM248.956 320.676C249.69 320.676 250.285 320.127 250.285 319.449C250.285 318.771 249.69 318.221 248.956 318.221C248.221 318.221 247.628 318.771 247.628 319.449C247.628 320.127 248.221 320.676 248.956 320.676Z" fill="#4094F2"/>
</g>
<path d="M403.445 181.601C405.331 181.588 407.014 181.498 407.87 181.33C408.53 181.201 409.149 181.008 409.707 180.79C410.185 180.601 410.618 180.395 410.994 180.193C411.975 179.673 412.569 179.188 412.569 179.188L426.543 179.712C427.165 177.279 426.664 173.866 426.543 173.287C426.543 173.287 413.657 173.875 411.808 172.45C411.79 172.441 411.77 172.425 411.756 172.412C411.736 172.384 411.718 172.355 411.701 172.326C411.394 171.901 410.673 171.476 409.799 171.142C409.157 170.898 408.437 170.701 407.745 170.58C406.053 170.288 404.156 166.301 403.218 166.76C402.279 167.224 402.702 169.812 403.832 170.623C404.957 171.434 404.158 172.358 402.796 172.358H402.368C399.648 172.358 391.235 172.397 391.021 173.654C390.881 174.474 394.373 174.782 397.082 174.899C393.762 174.869 389.003 174.984 389.341 175.894C389.602 176.593 394.418 177.023 397.109 177.238C395.25 177.247 391.574 177.388 391.559 177.976C391.531 179.247 395.342 179.422 397.913 179.396C396.385 179.509 394.645 179.787 394.538 180.465C394.412 181.291 399.405 181.635 403.445 181.601Z" fill="#FB8A77"/>
<path opacity="0.25" d="M401.686 175.061C401.681 175.061 401.678 175.065 401.674 175.064L397.484 174.8L401.684 174.848H401.691C401.699 174.848 401.853 174.04 401.991 173.649C401.884 174.231 401.843 174.818 401.825 175.403C401.82 175.62 401.819 175.839 401.82 176.056C401.82 176.057 401.671 175.173 401.686 175.061ZM401.681 177.508C401.678 177.508 401.676 177.511 401.673 177.511L397.482 177.247L401.653 177.295C401.637 176.713 401.824 176.33 401.824 176.33C401.83 176.607 401.841 176.884 401.867 177.159C401.892 177.493 401.955 177.825 402.034 178.156C401.981 178.165 401.718 177.737 401.681 177.508ZM402.211 179.428L398.011 179.402L402.175 179.214C402.136 179.115 402.034 178.431 402.099 178.421H402.101C402.141 178.569 402.182 178.718 402.226 178.865C402.394 179.428 402.594 179.983 402.806 180.537C402.594 180.176 402.229 179.428 402.211 179.428Z" fill="#231F20"/>
<path d="M251.482 118.15C251.482 118.15 251.337 118.282 251.106 118.503C251.098 117.645 250.885 116.677 249.976 116.601C248.321 116.462 243.668 122.335 245.121 122.89C245.769 123.137 247.004 122.556 248.175 121.838C247.369 123.041 247.583 124.678 248.852 124.879C250.734 125.175 251.73 123.312 252.629 122.249C251.53 123.863 250.916 126.564 252.21 126.516C254.088 126.447 256.29 122.867 256.29 122.867C256.29 122.867 254.336 125.78 256.29 126.474C257.932 127.057 259.576 121.472 259.576 121.472C259.576 121.472 256.891 115.306 251.482 118.15Z" fill="#FB8A77"/>
</svg>
