<svg width="549" height="435" viewBox="0 0 549 435" fill="none" xmlns="http://www.w3.org/2000/svg">
<path fill-rule="evenodd" clip-rule="evenodd" d="M315.295 329.554C265.129 327.257 221.713 335.079 231.165 346.99C246.048 365.723 290.002 358.452 315.899 370.86C344.969 384.784 395.728 366.548 392.441 352.509C388.138 334.163 339.649 330.67 315.295 329.554ZM213.449 89.6118C183.977 95.8077 164.163 113.36 176.376 126.457C195.594 147.05 216.031 130.086 237.756 140.834C262.141 152.892 286.284 137.609 276.294 120.754C263.235 98.7335 227.758 86.6063 213.449 89.6118Z" fill="#F0EFF4"/>
<path fill-rule="evenodd" clip-rule="evenodd" d="M309.786 325.897C431.206 361.489 498.39 238.02 436.31 173.309C319.061 51.1344 285.529 192.869 194.008 151.998C91.299 106.147 70.5682 233.694 95.5708 276.016C164.292 392.482 246.751 307.424 309.786 325.897Z" fill="#F0EFF4"/>
<path d="M101.003 283.977C101.928 282.688 103.049 281.615 103.963 280.205C103.991 280.164 104.005 280.096 104.032 280.056C107.193 277.787 110.971 275.15 113.887 272.462C118.476 268.199 121.945 263.437 124.83 258.622C128.468 252.946 130.719 246.708 131.451 240.28C131.588 237.624 133.194 231.484 129.626 230.341C126.521 230.076 120.774 234.45 118.553 236.148C110.217 242.817 103.559 250.77 100.229 259.067C99.2434 261.639 98.9444 264.364 99.354 267.045C99.7636 269.727 100.872 272.298 102.598 274.572C103.231 275.614 104.073 276.899 104.108 278.05C104.04 278.731 103.817 279.395 103.45 280.003C103.389 280.048 103.335 280.098 103.288 280.153C103.272 280.177 103.263 280.205 103.26 280.233C103.257 280.261 103.261 280.289 103.272 280.315C102.707 281.12 102.077 281.891 101.386 282.622C101.21 282.839 101.046 283.084 100.87 283.301C100.554 282.34 100.238 281.378 99.8693 280.404C98.1037 276.384 95.5896 272.651 93.1553 268.89C91.9269 266.888 90.6458 264.873 89.2972 262.911C91.3032 260.563 93.4937 258.31 95.1822 255.882C98.6409 250.903 101.558 245.763 103.534 240.503C105.937 233.494 109.409 226.185 108.145 219.293C107.624 217.898 106.84 215.557 104.422 215.562C103.889 215.617 103.419 215.903 102.99 216.175L100.209 217.969C97.7252 219.505 95.4114 221.203 93.5978 223.171C86.4122 230.894 82.7896 240.831 83.9354 249.241C84.5623 253.019 86.3631 256.524 87.2843 260.233L87.2972 260.26C86.9587 259.842 86.6203 259.422 86.2541 259.043C83.3068 255.772 79.7163 252.812 76.769 249.541C75.2425 247.891 73.7432 246.201 72.2167 244.552L72.2038 244.525C71.859 243.699 71.551 243.049 71.604 242.277C71.7726 240.963 73.0762 239.294 73.9005 237.694C75.7685 234.073 76.4693 230.347 77.5678 226.673C79.1731 220.533 80.4336 214.354 79.8978 208.313C79.8095 206.864 79.549 205.426 79.1201 204.021C78.6216 202.085 76.3735 203.038 74.8516 204.247C71.917 206.502 69.231 208.986 67.3117 211.713C65.6759 214.154 65.0608 216.784 64.4588 219.346C63.6106 223.154 62.8941 227.043 63.5623 230.713C64.0048 232.825 65.0745 234.787 66.3718 236.64C67.3803 238.277 68.9389 239.601 70.3902 240.993C70.6647 241.182 70.8055 241.574 71.1215 241.75C71.0032 242.102 70.9568 242.469 70.9842 242.834L71.094 243.362C69.996 242.227 68.9131 241.118 67.749 240.038C64.9202 237.605 61.8472 235.539 59.0289 233.229C56.484 231.297 53.6841 229.515 51.072 227.638C51.0801 227.577 51.0986 227.518 51.1269 227.461C51.2145 227.221 51.3205 226.985 51.4442 226.756C52.2636 225.441 53.4535 224.219 54.3789 222.93C55.6295 221.248 56.9866 219.592 58.0253 217.856C59.0541 215.997 59.917 214.075 60.607 212.107C62.3405 207.809 62.6534 203.46 62.3663 199.221C62.2589 197.717 61.8708 196.31 61.6671 194.996C61.5817 194.394 61.4543 193.798 61.2856 193.209C61.17 192.965 61.016 192.64 60.5911 192.627C60.0333 192.629 59.7333 193.076 59.4494 193.361C58.7326 194.108 58.003 194.828 57.2606 195.52C55.2112 197.285 52.8716 198.929 51.1911 200.884C48.1167 204.318 46.204 208.236 46.1403 212.029C46.2638 214.942 47.7343 217.553 48.8853 220.178C49.5235 221.721 50.2147 223.278 50.322 224.782C50.4022 225.54 50.3495 226.313 50.3495 227.098C48.8809 225.964 47.1488 224.667 45.7909 223.274C45.5265 223.007 45.2954 222.717 45.1013 222.409C45.1625 222.285 45.1787 222.148 45.1477 222.016C45.1017 221.724 45.1023 221.428 45.1494 221.135C45.2441 219.469 45.5117 217.775 45.2592 216.164C44.9385 214.701 44.0036 213.417 43.2828 212.09C41.8434 209.633 40.1158 207.304 38.126 205.139C32.8743 199.853 27.0263 195.273 20.4982 190.831C19.8921 190.534 18.4073 188.776 17.7032 189.55C17.214 190.973 17.2687 192.463 17.0587 193.886C16.5182 200.701 19.8262 206.993 25.0296 211.98C26.6525 213.44 28.2624 214.872 30.1674 216.142C32.1254 217.425 34.42 218.436 36.5671 219.528C38.5957 220.567 40.7316 221.538 43.1529 222.129C43.4551 222.213 43.7651 222.276 44.0796 222.317C45.3024 224.003 46.7969 225.536 48.5199 226.872C42.2597 224.663 37.1364 220.435 29.4266 219.882C25.9245 219.565 22.2393 219.843 18.6025 220.42C15.8126 220.78 13.0792 221.404 10.4534 222.28C9.19618 222.77 7.75615 223.071 6.70756 223.805C5.48714 225.257 8.44734 226.2 9.80941 226.616C12.3864 227.339 15.2648 227.618 18.0502 227.897C20.5435 228.149 22.9698 228.455 25.5322 228.558C26.0551 231.428 26.5232 234.38 28.6341 236.869C32.7343 241.885 40.0865 245.514 48.7439 245.807C51.3866 245.882 54.0662 245.348 56.7168 244.95C58.2356 244.716 59.9641 244.632 61.2631 244.819C64.0196 245.233 66.8434 245.592 69.7665 245.573C69.9971 245.581 70.228 245.576 70.4577 245.557C72.4783 247.856 74.4314 250.209 76.5318 252.48C79.5338 255.671 82.8706 258.684 85.43 262.12C85.9752 262.877 86.5203 263.635 87.0125 264.379C81.9535 261.071 77.595 257.178 71.7278 254.522C67.6963 252.755 63.4941 251.282 59.167 250.12C56.1766 249.408 53.0286 248.562 49.6372 248.771C43.9704 249.19 38.5391 251.382 33.3066 252.815C32.0063 253.509 33.7829 254.508 34.333 254.98C37.8109 257.506 42.5175 258.892 47.1453 260.209C51.7459 261.568 56.1972 263.102 61.0432 264.094C64.7215 264.981 68.7566 265.148 72.7827 265.194C75.7045 265.269 78.5426 265.561 81.4083 265.812C83.6131 266.016 85.8335 266.07 88.0485 265.975C89.1229 267.652 90.1443 269.316 91.1778 271.007C93.2223 274.241 95.0856 277.19 96.6892 280.573C97.5032 282.42 98.1943 284.304 98.7592 286.217C95.6574 285.858 93.4803 284.115 91.1556 282.549C87.8314 280.348 84.063 278.486 80.2403 276.706C76.3773 274.939 72.3347 273.581 68.5488 271.977C63.3133 269.671 57.9158 267.515 52.111 265.875C49.3145 265.089 46.3647 264.768 43.4244 264.932C41.2196 264.896 41.4551 265.885 42.2089 266.885C46.2482 271.577 49.2405 276.908 54.9298 280.661C57.259 282.228 59.7423 283.623 62.3526 284.831C64.2238 285.735 66.1481 286.652 68.3578 287.189C73.9559 288.491 80.2497 288.708 86.4089 288.248C88.5898 288.135 90.7114 287.602 92.8322 287.069C93.8465 286.829 94.8413 286.533 95.81 286.183L96.0106 286.115C96.5924 286.33 97.1998 286.492 97.8223 286.598C98.1805 286.664 98.5438 286.709 98.9094 286.731C99.9186 290.337 100.48 294.022 100.584 297.727C99.7111 296.837 98.6851 296.063 97.5402 295.431C96.0788 294.747 94.4575 294.343 92.7913 294.249C88.7012 294.163 84.9003 294.984 80.917 294.83C77.503 294.797 74.6825 294.248 71.4514 293.618C69.3987 293.216 67.3078 292.733 65.0339 292.846C61.2304 293.071 57.8837 295.34 55.5345 297.553C54.6836 298.408 53.7914 299.277 53.0456 300.159C52.4187 301.095 53.4722 301.647 54.4777 301.903C56.5815 302.413 58.9339 302.368 61.2751 302.2C64.0284 302.018 66.7544 301.877 69.4917 301.857C72.7726 301.904 76.1593 301.979 79.307 300.468C81.1544 299.652 82.6601 298.605 84.3578 297.965C88.0315 296.779 92.0114 297.908 95.6771 298.767C96.8855 299.029 98.1378 299.113 99.3799 299.017C99.8193 298.994 100.252 298.911 100.659 298.77C100.73 301.669 100.893 304.568 100.604 307.494C100.573 307.82 100.547 307.765 100.487 308.131L100.513 308.185C100.526 308.212 100.526 308.212 100.499 308.253L100.512 308.28C100.516 308.31 100.527 308.34 100.546 308.366C100.565 308.392 100.59 308.414 100.621 308.431C100.651 308.447 100.685 308.458 100.721 308.463C100.756 308.467 100.793 308.464 100.827 308.455C101.305 308.348 101.757 308.173 102.165 307.938C102.816 307.936 102.805 306.243 102.875 305.999C103.067 304.143 103.111 302.273 103.169 300.431C104.037 300.193 104.865 299.859 105.63 299.437C106.255 299.045 106.821 298.589 107.314 298.079C107.445 298.16 107.726 298.064 107.954 297.956C109.211 297.465 110.624 297.205 112.092 296.768C113.762 296.263 115.433 295.664 117.051 295.051C120.997 293.458 124.527 291.377 127.82 289.094C133.288 285.507 137.971 281.243 141.067 276.482C142.079 274.787 143.198 273.023 143.202 271.262C143.168 270.896 143.216 270.409 142.727 270.261C142.238 270.113 141.648 270.439 141.128 270.521C140.2 270.771 139.256 270.976 138.301 271.137C134.784 271.672 131.24 272.249 127.948 273.652C121.165 276.429 113.672 283.503 111.59 288.736C110.542 291.041 110.288 293.453 108.898 295.529C108.063 296.66 107.073 297.703 105.949 298.637C105.343 299.125 104.459 299.52 103.324 299.875L103.244 299.902C103.257 299.144 103.257 298.358 103.27 297.601C103.017 292.94 102.337 288.363 101.003 283.977ZM64.0682 244.65C64.0041 244.631 63.9368 244.622 63.8692 244.623C63.794 244.366 63.2793 244.163 63.1508 243.893C62.1102 242.581 61.0967 241.229 59.5735 240.175C56.4368 237.879 52.747 236.085 49.1118 234.21C45.6226 232.348 41.742 230.839 38.022 229.181L36.2421 228.372C37.2924 228.329 38.3025 228.3 39.353 228.256C42.4766 228.168 45.6116 228.202 48.7818 227.721C48.8749 227.721 48.955 227.694 49.0481 227.693C49.1411 227.693 49.2067 227.734 49.2998 227.734L49.38 227.706C50.9402 228.936 52.6078 230.097 54.1563 231.299C56.4269 232.947 58.2213 234.474 60.2642 236.231C62.4129 238.014 64.4206 239.5 66.3545 241.419C67.5044 242.568 68.5867 243.772 69.6161 244.962C67.7606 244.963 65.9071 244.859 64.0682 244.65Z" fill="#E0DEE8"/>
<path d="M435.029 183.1C435.489 183.608 435.915 184.144 436.376 184.652C437.387 185.822 438.474 186.942 439.631 188.009C441.253 189.386 443.035 190.62 444.95 191.694C447.41 193.051 449.625 194.255 450.769 196.382L450.838 196.326C451.495 195.854 454.964 194.401 454.777 196.02C454.665 198.047 454.551 199.958 455.239 201.809C455.478 202.472 455.815 203.107 456.242 203.699C456.299 203.436 456.377 203.177 456.475 202.923C456.576 202.665 456.712 202.379 457.024 202.303C457.928 202.042 458.684 203.779 459.075 204.285C461.068 207.136 461.6 210.461 461.575 213.652C461.506 216.29 460.922 219.52 457.905 220.843C456.934 221.276 455.295 221.367 454.567 221.662C452.622 222.353 454.803 223.643 456.526 224.657C457.312 225.1 458.134 225.495 458.985 225.84C461.113 224.294 463.508 223.032 466.086 222.097C466.229 222.036 466.381 221.992 466.538 221.967C467.012 221.355 467.247 220.631 467.207 219.9C467.228 218.827 466.478 217.554 466.216 216.298C465.771 214.368 467.419 212.392 469.812 213.979C471.61 215.343 471.231 218.232 470.59 219.865C470.398 220.306 470.146 220.726 469.84 221.118C469.979 221.064 470.153 221.041 470.292 220.987L472.066 220.61C472.029 220.464 471.993 220.376 471.956 220.229C471.544 218.943 471.303 217.621 471.239 216.289C471.175 214.169 472.264 212.115 473.883 210.572C475.711 209.036 478.141 208.129 480.218 206.921C483.265 205.28 485.779 202.838 489.359 201.881C490.889 201.525 492.467 202.07 492.696 203.528C492.888 204.898 492.593 206.252 492.157 207.544C491.418 209.667 490.19 211.658 488.925 213.56C488.891 213.646 488.822 213.702 488.787 213.788C488.831 213.744 488.893 213.715 488.961 213.707C490.863 212.463 492.616 210.576 494.409 209.01C496.926 206.801 500.008 205.073 503.303 203.643C504.691 203.109 507.879 201.53 509.356 202.333C509.562 202.504 509.701 202.725 509.754 202.965C509.807 203.206 509.772 203.454 509.653 203.677C508.836 205.159 508.017 206.525 507.548 207.961C507.285 208.785 507.075 209.621 506.92 210.464C507.753 210.202 508.587 209.939 509.455 209.648C511.783 208.883 514.074 208.029 516.618 207.852C519.164 207.79 521.995 208.144 524.107 209.489C526.149 210.891 527.498 212.56 529.816 213.622C532.063 214.683 535.178 215.394 537.873 216.033C538.783 216.237 539.763 216.444 540.673 216.647C541.269 216.812 541.899 216.95 542.322 217.311C543.03 218.032 542.126 218.291 541.43 218.442C540.492 218.731 539.555 219.019 538.652 219.338C536.569 220.082 534.212 221.223 532.026 222.167C530.154 223.034 528.248 223.988 526.127 224.469C522.524 225.337 518.722 225.422 515.07 224.716C514.51 224.582 513.916 224.475 513.39 224.313C513.498 224.52 513.675 224.728 513.782 224.935C514.708 226.3 515.88 227.818 515.657 229.407C515.262 231.077 513.033 231.41 511.216 231.176C510.167 231.026 509.219 230.56 508.306 230.182C506.516 229.398 504.894 228.126 503.624 227.098C502.424 226.13 500.875 225.093 499.578 224.615C499.017 224.422 498.596 224.293 498.425 224.432C498.488 224.551 498.571 224.662 498.674 224.759C499.915 226.222 501.261 227.717 501.843 229.477C501.958 229.797 501.986 230.135 501.925 230.466C501.323 232.361 495.988 227.457 495.143 226.849C494.012 226 492.8 225.232 491.518 224.554C489.445 223.471 486.984 222.113 484.894 222.335C484.164 222.572 484.623 222.965 485.543 223.923C487.313 225.78 489.997 228.189 489.054 230.654C488.376 232.082 486.182 232.446 484.535 231.899C483.528 231.53 482.583 231.05 481.725 230.472L481.939 230.827C482.085 231.296 481.985 231.67 481.675 231.921C484.272 233.05 487.704 234.033 489.965 235.964C490.953 236.751 492.054 238.209 490.705 239.064C490.289 239.283 489.766 239.295 489.243 239.306C488.915 239.292 488.588 239.262 488.264 239.216C488.835 240.106 489.301 241.02 489.975 241.826C490.969 243.077 492.632 244.843 493.492 246.438C494.457 248.182 494.797 250.079 494.891 251.939C495.061 253.904 494.706 255.875 493.854 257.708C493.176 259.195 492.563 260.335 492.234 261.833C492.137 262.381 491.97 262.926 491.908 263.506C491.846 264.085 491.716 264.776 490.834 264.08C489.208 262.518 488.382 260.778 486.792 259.305C481.84 254.326 476.708 256.654 474.016 251.139C473.393 249.879 473.067 248.528 473.055 247.162C473.11 245.839 473.022 244.516 472.792 243.207C471.588 244.416 470.172 245.5 468.967 246.709L468.83 246.82C469.228 247 469.615 247.196 469.989 247.41C470.763 247.841 471.572 248.361 472.001 249.071C472.536 249.93 472.2 250.906 471.476 251.549C471.617 251.67 471.723 251.819 471.9 251.969C472.29 252.359 473.067 253.081 473.279 253.262C474.655 254.381 476.408 255.019 477.886 255.996C479.365 256.972 479.982 258.705 478.496 259.787C477.856 260.28 477.034 260.571 476.17 260.611C475.857 260.639 475.541 260.639 475.228 260.609C475.048 260.885 474.889 261.17 474.751 261.464C473.937 263.178 473.755 265.145 473.887 267.151C474.345 270.068 476.69 273.162 479.097 275.736C479.936 276.574 480.716 277.453 481.436 278.366C481.826 278.873 482.428 279.501 482.017 280.068C481.811 280.294 481.393 280.338 481.045 280.385C480.278 280.476 479.511 280.508 478.745 280.6C475.558 280.884 472.336 280.61 469.279 279.796C467.493 279.302 465.636 278.748 464.226 277.657C461.795 275.924 461.889 272.561 461.472 270.139C461.36 269.282 461.101 268.443 460.705 267.648C460.248 266.859 459.649 266.135 458.932 265.501C458.924 266.167 458.792 266.829 458.54 267.461C457.588 269.287 455.401 267.59 454.55 266.518C452.307 263.282 452.43 259.485 451.267 256.023C450.682 254.089 450.302 251.813 447.861 251.907C446.466 251.92 445.041 252.366 443.862 252.85C443.304 253.083 442.77 253.357 442.268 253.668C442.234 253.696 442.164 253.694 442.094 253.692C440.95 256.788 440.086 259.951 439.117 263.082C438.149 266.329 437.182 269.576 436.319 272.856C437.508 273.025 438.678 273.277 439.818 273.609C440.8 273.931 441.749 274.455 442.283 275.256C442.643 275.763 442.888 276.322 443.003 276.905C443.321 277.176 443.778 277.452 444.201 277.756C444.833 278.201 445.402 278.706 445.896 279.262C447.313 280.818 448.425 283.03 447.543 284.858L447.579 284.889C448.327 286.349 448.625 287.946 448.444 289.53C448.324 290.977 447.855 292.355 447.56 293.767C447.201 295.583 447.611 297.482 447.986 299.468C447.9 300.77 446.349 299.617 445.784 299.134C444.655 298.228 443.665 297.266 442.571 296.331C440.91 294.796 439.008 293.458 437.277 291.921C435.913 290.664 434.734 289.271 433.767 287.773C433.445 287.211 433.159 286.68 432.907 286.12C432.312 288.538 431.647 290.953 430.947 293.339C430.562 294.798 430.069 296.236 429.47 297.643C428.75 299.18 427.884 300.665 426.879 302.083C425.544 303.926 424.21 305.884 422.346 307.39C421.617 307.627 421.116 306.74 421.599 306.292C422.461 305.449 423.264 304.565 424.005 303.643C425.584 301.722 427.667 298.453 428.342 296.793C430.024 292.205 431.075 287.423 432.337 282.706C434.481 273.636 437.045 264.638 439.889 255.708C439.935 255.512 440.002 255.32 440.09 255.134C437.772 254.014 434.192 252.388 432.629 250.363C432.535 250.507 432.419 250.64 432.285 250.759C431.575 251.717 430.603 252.517 429.451 253.091C428.299 253.664 427.001 253.994 425.666 254.053C423.75 254.251 421.726 254.185 419.936 253.401C419.164 253.086 418.358 252.798 417.689 252.341C417.16 251.946 417.257 251.398 417.847 251.155C418.576 250.86 419.063 250.76 419.686 250.374C419.964 250.203 420.179 249.969 420.305 249.698C418.73 249.327 417.153 248.84 415.578 248.469C414.246 248.02 411.411 247.376 411.01 246.115C410.86 245.355 411.69 244.802 412.49 244.625C412.58 244.599 412.674 244.582 412.769 244.577C412.621 244.473 412.455 244.389 412.277 244.328C411.384 243.879 410.445 243.5 409.472 243.195C407.614 242.583 405.756 241.913 404.206 240.817C403.29 240.149 402.198 239.388 401.939 238.364C401.791 237.721 402.379 237.363 403.005 237.209C402.888 236.306 402.713 235.41 402.48 234.523C401.782 231.87 400.309 229.408 398.196 227.362C396.176 225.061 392.964 222.317 392.611 219.432C392.528 218.502 393.002 217.414 394.367 217.719C398.115 218.742 401.76 220.021 405.472 221.014C407.643 221.607 409.745 222.198 411.881 222.819C413.458 223.306 415.138 223.709 416.683 224.398C419.178 225.728 420.917 227.903 421.856 230.197C422.677 229.063 423.638 227.876 425.35 228.019C426.75 228.297 427.463 229.597 428.001 230.572C428.481 231.481 428.777 232.452 428.878 233.444C429.006 235.218 428.887 236.722 429.468 238.367C429.57 238.642 429.702 238.909 429.862 239.163C430.36 238.507 430.783 237.811 431.125 237.087C431.363 236.601 431.599 236.058 431.837 235.572C432.006 235.143 432.347 234.632 432.942 234.738C434.692 235.144 435.356 237.777 435.618 239.091C436.368 242.887 435.198 246.708 432.869 249.882C434.008 251.486 436.607 252.79 438.785 253.905L440.155 254.56C441.766 249.912 444.008 245.401 446.39 241.01C446.628 240.525 446.935 240.042 447.207 239.528C446.997 239.464 446.786 239.341 446.576 239.276C445.7 238.986 444.86 238.784 443.984 238.552C442.692 238.291 441.418 237.968 440.169 237.586C437.434 236.568 435.074 234.953 432.957 233.201C432.145 232.507 431.299 231.841 430.452 231.175C430.064 230.843 429.464 230.388 429.354 229.949C429.276 229.842 429.227 229.721 429.21 229.596C429.24 229.22 429.726 229.061 430.109 229.045C430.363 229.003 430.619 228.973 430.876 228.954C431.677 228.893 432.514 228.805 433.35 228.774C437.746 228.744 443.17 229.937 445.209 233.631C445.852 234.755 446.187 236.305 446.755 237.018C447.18 237.496 447.499 237.826 447.99 238.016C449.748 235.014 451.872 232.175 454.329 229.548C453.774 229.234 453.187 228.962 452.574 228.737C449.911 227.895 447.049 227.801 444.386 226.96C442.299 226.315 440.317 225.45 438.486 224.386C436.658 223.339 434.863 222.207 433.449 220.826C432.175 219.507 431.77 217.956 433.995 217.391C434.935 217.219 435.88 217.453 436.825 217.629C438.119 217.874 439.343 218.117 440.808 218.107C440.878 218.11 440.982 218.084 441.052 218.086C440.807 217.991 440.561 217.838 440.315 217.743C438.187 216.706 436.132 215.563 434.163 214.321C433.318 213.771 432.473 213.221 431.697 212.615C430.956 212.04 430.25 211.378 430.03 210.559C429.845 209.827 430.222 209.23 431.128 209.144C432.069 209.087 433.015 209.38 433.889 209.553C435.184 209.799 436.303 210.01 437.491 210.165C436.435 209.492 435.31 208.875 434.289 208.174C432.473 206.89 430.848 205.424 429.45 203.808C429.06 203.36 425.796 199.365 427.791 199.808C429.686 200.682 431.165 201.659 433.126 202.188C433.406 202.255 433.652 202.35 433.932 202.417C432.102 198.73 433.256 196.389 433.831 192.461C434.072 190.896 434.132 189.314 434.011 187.738C433.92 186.168 433.479 184.529 433.806 182.972C433.895 182.908 433.997 182.861 434.108 182.833C434.219 182.804 434.336 182.796 434.451 182.808C434.566 182.82 434.677 182.852 434.776 182.902C434.876 182.953 434.962 183.02 435.029 183.1ZM466.003 223.517C464.384 224.165 462.841 224.94 461.394 225.832C462.605 225.809 463.814 225.916 464.992 226.153C465.936 226.329 466.601 226.496 467.613 226.5C469.498 226.562 471.335 225.664 473.394 225.703C475.034 225.728 476.475 226.5 477.743 227.354L477.813 227.414L475.695 225.604C474.636 224.698 473.717 223.798 472.626 223.095C472.132 222.73 471.571 222.48 471.043 222.144C469.324 222.494 467.64 222.953 466.003 223.517ZM446.842 243.519C445.754 245.573 444.769 247.541 443.888 249.486C444.232 249.469 444.572 249.412 444.898 249.316C445.966 249.104 446.979 248.724 447.883 248.196C449.684 247.21 450.596 245.006 452.429 243.818C453.468 243.272 454.758 243.227 456.014 243.21C457.341 243.239 458.662 243.369 459.962 243.6C461.362 243.879 462.693 244.328 464.093 244.664C464.288 244.711 464.487 244.747 464.688 244.771C464.915 243.633 465.075 242.485 465.164 241.334C465.262 239.583 465.145 237.829 464.814 236.099C464.662 235.236 464.428 234.384 464.116 233.552C463.635 234.456 463.038 235.312 462.337 236.105C461.816 236.705 461.253 237.277 460.651 237.82C460.758 238.027 460.901 238.263 461.007 238.471C461.361 239.06 461.828 239.595 462.39 240.054C463.975 241.18 463.6 241.835 461.863 242.358C460.534 242.837 459.077 242.999 457.648 242.829C456.04 242.661 454.431 242.318 453.025 241.575C452.253 241.202 451.617 240.601 450.878 240.199C450.315 239.833 449.584 239.954 448.715 240.186C448.012 241.264 447.386 242.377 446.842 243.519H446.842Z" fill="#DAD8E4"/>
<path fill-rule="evenodd" clip-rule="evenodd" d="M273.182 121.342C273.182 118.303 261.958 115.254 258.936 113.667C257.444 112.888 255.741 112.447 253.99 112.384C252.24 112.322 250.499 112.64 248.935 113.31L100.595 176.132C98.8902 176.85 97.4559 177.956 96.453 179.327C95.45 180.697 94.9181 182.277 94.917 183.889V320.276C94.9125 321.764 95.3576 323.228 96.21 324.529C97.0625 325.83 98.2938 326.925 99.7869 327.709C102.808 329.295 112.601 334.298 115.804 332.942C151.483 317.832 234.745 275.147 258.13 265.243C259.84 264.521 261.277 263.41 262.28 262.033C263.283 260.657 263.812 259.07 263.808 257.453C263.808 235.769 273.182 154.42 273.182 121.342Z" fill="#7C76A8"/>
<path fill-rule="evenodd" clip-rule="evenodd" d="M275.667 126.088C275.669 124.604 275.222 123.145 274.369 121.849C273.515 120.554 272.284 119.465 270.793 118.687C269.301 117.909 267.599 117.468 265.849 117.406C264.099 117.344 262.359 117.663 260.796 118.332L112.454 181.155C110.75 181.873 109.315 182.979 108.312 184.349C107.31 185.719 106.778 187.299 106.777 188.911V325.298C106.767 326.783 107.208 328.244 108.056 329.543C108.904 330.842 110.132 331.935 111.621 332.718C113.11 333.501 114.811 333.947 116.562 334.013C118.313 334.08 120.055 333.765 121.621 333.099L269.99 270.265C271.699 269.544 273.136 268.432 274.139 267.056C275.142 265.679 275.671 264.092 275.667 262.475V126.088Z" fill="#A9A5C6"/>
<path fill-rule="evenodd" clip-rule="evenodd" d="M275.667 134.349C275.673 132.864 275.229 131.402 274.378 130.103C273.526 128.805 272.296 127.713 270.804 126.932C269.312 126.151 267.609 125.707 265.856 125.643C264.104 125.579 262.362 125.897 260.796 126.567L112.454 189.39C110.747 190.107 109.311 191.215 108.308 192.587C107.304 193.96 106.774 195.543 106.776 197.157V296.932C106.77 298.416 107.213 299.876 108.062 301.173C108.911 302.47 110.138 303.562 111.627 304.343C113.115 305.125 114.816 305.57 116.565 305.637C118.315 305.704 120.055 305.39 121.621 304.726L269.989 241.892C271.694 241.171 273.128 240.063 274.13 238.691C275.133 237.319 275.665 235.738 275.667 234.125V134.349Z" fill="white"/>
<mask id="mask0_51_368" style="mask-type:luminance" maskUnits="userSpaceOnUse" x="106" y="125" width="170" height="181">
<path d="M275.667 134.349C275.673 132.864 275.229 131.402 274.378 130.103C273.526 128.805 272.296 127.713 270.804 126.932C269.312 126.151 267.609 125.707 265.856 125.643C264.104 125.579 262.362 125.897 260.796 126.567L112.454 189.39C110.747 190.107 109.311 191.215 108.308 192.587C107.304 193.96 106.774 195.543 106.776 197.157V296.932C106.77 298.416 107.213 299.876 108.062 301.173C108.911 302.47 110.138 303.562 111.627 304.343C113.115 305.125 114.816 305.57 116.565 305.637C118.315 305.704 120.055 305.39 121.621 304.726L269.989 241.892C271.694 241.171 273.128 240.063 274.13 238.691C275.133 237.319 275.665 235.738 275.667 234.125V134.349Z" fill="white"/>
</mask>
<g mask="url(#mask0_51_368)">
<path fill-rule="evenodd" clip-rule="evenodd" d="M110.502 261.902C119.957 251.24 139.926 215.886 157.878 208.968C175.829 202.049 201.96 222.602 218.265 220.389C233.933 218.266 246.574 197.901 255.815 195.692C263.091 193.965 271.696 201.036 274.033 207.123C278.335 218.554 299.951 252.918 281.734 264.286C252.948 282.235 131.215 313.374 101.154 314.818C84.6895 315.609 99.7203 281.771 101.26 272.95C102.057 268.487 107.315 265.514 110.502 261.902Z" fill="#D6D5E4"/>
<path d="M252.291 179.579C261.895 169.162 263.603 156.697 256.105 151.738C248.608 146.779 234.744 151.204 225.14 161.621C215.536 172.039 213.828 184.503 221.325 189.462C228.823 194.421 242.686 189.996 252.291 179.579Z" fill="#D6D5E4"/>
</g>
<path fill-rule="evenodd" clip-rule="evenodd" d="M275.666 225.449C275.667 225.191 275.592 224.938 275.446 224.712C275.3 224.487 275.09 224.296 274.833 224.158C274.573 224.021 274.276 223.943 273.97 223.933C273.664 223.922 273.36 223.979 273.088 224.097L107.741 294.122C107.448 294.247 107.203 294.439 107.033 294.676C106.862 294.913 106.774 295.185 106.777 295.463V298.974C106.776 299.231 106.852 299.484 106.998 299.709C107.144 299.934 107.355 300.125 107.611 300.262C107.87 300.4 108.168 300.478 108.473 300.489C108.779 300.5 109.083 300.443 109.356 300.325L274.703 230.3C274.995 230.175 275.24 229.983 275.411 229.746C275.581 229.509 275.67 229.237 275.666 228.959V225.449Z" fill="#FFFEFF"/>
<path fill-rule="evenodd" clip-rule="evenodd" d="M206.143 254.91C206.142 254.653 206.065 254.4 205.917 254.175C205.77 253.95 205.558 253.761 205.3 253.624C205.043 253.488 204.748 253.411 204.445 253.399C204.142 253.388 203.84 253.442 203.569 253.558L107.754 294.136C107.458 294.26 107.209 294.452 107.035 294.691C106.862 294.929 106.771 295.204 106.774 295.484V298.995C106.77 299.253 106.846 299.507 106.994 299.732C107.141 299.958 107.356 300.146 107.616 300.28C107.874 300.416 108.168 300.494 108.472 300.506C108.775 300.518 109.077 300.463 109.348 300.348L205.162 259.771C205.457 259.645 205.705 259.452 205.878 259.214C206.051 258.976 206.143 258.702 206.143 258.422V254.91Z" fill="#77536F"/>
<path fill-rule="evenodd" clip-rule="evenodd" d="M130.022 281.472C130.022 281.306 129.971 281.143 129.875 280.999C129.779 280.855 129.641 280.734 129.474 280.648C129.307 280.562 129.116 280.513 128.921 280.507C128.725 280.501 128.531 280.538 128.357 280.614L126.076 281.58C125.885 281.662 125.723 281.787 125.611 281.941C125.498 282.096 125.438 282.274 125.438 282.456V297.443C125.437 297.609 125.487 297.772 125.583 297.916C125.679 298.061 125.817 298.182 125.985 298.267C126.15 298.356 126.34 298.408 126.535 298.418C126.731 298.427 126.927 298.394 127.103 298.321L129.384 297.355C129.575 297.273 129.737 297.148 129.849 296.993C129.962 296.839 130.022 296.66 130.022 296.479V281.472ZM138.847 277.735C138.846 277.569 138.796 277.406 138.7 277.262C138.603 277.118 138.465 276.997 138.298 276.911C138.131 276.825 137.941 276.776 137.745 276.77C137.55 276.764 137.356 276.801 137.182 276.877L134.901 277.843C134.709 277.924 134.548 278.05 134.435 278.204C134.323 278.359 134.263 278.537 134.262 278.719V293.706C134.261 293.872 134.311 294.035 134.407 294.179C134.503 294.324 134.642 294.444 134.809 294.53C134.975 294.619 135.164 294.671 135.36 294.681C135.556 294.69 135.751 294.657 135.927 294.584L138.208 293.618C138.4 293.536 138.561 293.411 138.674 293.256C138.787 293.101 138.847 292.923 138.847 292.741V277.735Z" fill="#77536F"/>
<path fill-rule="evenodd" clip-rule="evenodd" d="M405.297 224.032C399.335 239.33 300.839 281.89 286.105 257.312C277.788 243.428 286.807 220.323 298.64 199.812C311.837 176.936 328.529 157.281 328.529 157.281C326.678 154.116 327.601 145.488 329.681 141.606C332.832 135.711 337.683 139.208 341.704 137.154C346.875 134.52 333.21 119.167 343.704 119.127C349.915 119.089 355.868 145.11 352.746 153.563C351.632 156.592 347.991 157.694 347.991 157.694C347.991 157.694 320.706 208.178 328.535 216.142C338.228 226.016 347.907 199.637 383.739 201.295C405.764 202.317 408.579 215.632 405.297 224.032Z" fill="#FFC197"/>
<mask id="mask1_51_368" style="mask-type:luminance" maskUnits="userSpaceOnUse" x="282" y="119" width="125" height="146">
<path d="M405.297 224.032C399.335 239.33 300.839 281.89 286.105 257.312C277.788 243.428 286.807 220.323 298.64 199.812C311.837 176.936 328.529 157.281 328.529 157.281C326.678 154.116 327.601 145.488 329.681 141.606C332.832 135.711 337.683 139.208 341.704 137.154C346.875 134.52 333.21 119.167 343.704 119.127C349.915 119.089 355.868 145.11 352.746 153.563C351.632 156.592 347.991 157.694 347.991 157.694C347.991 157.694 320.706 208.178 328.535 216.142C338.228 226.016 347.907 199.637 383.739 201.295C405.764 202.317 408.579 215.632 405.297 224.032Z" fill="white"/>
</mask>
<g mask="url(#mask1_51_368)">
<path fill-rule="evenodd" clip-rule="evenodd" d="M338.019 205.127C342.688 206.729 345.53 212.444 347.392 215.999C349.363 219.756 350.464 223.829 350.15 227.968C349.678 234.199 346.371 239.976 346.276 246.229C346.208 250.881 348.142 255.653 351.244 259.478C352.692 261.267 354.508 262.821 356.604 264.067C369.016 271.397 387.038 263.364 397.71 257.271C409.719 250.415 420.456 240.189 423.821 227.961C429.045 209.002 412.807 190.917 391.575 186.044C383.168 184.154 374.346 184.009 365.859 185.623C355.767 187.506 346.075 191.492 338.903 197.861L338.019 205.127Z" fill="#FE9400"/>
<path fill-rule="evenodd" clip-rule="evenodd" d="M315.978 151.884C318.758 152.973 328.781 154.61 328.194 157.172C326.969 162.646 306.694 176.296 297.946 230.034C295.855 242.919 312.866 254.333 324.394 252.696C338.421 250.702 351.325 239.118 362.955 232.602C367.087 230.284 370.657 227.464 374.482 224.828C375.937 223.841 377.951 222.657 379.456 224.216C381.369 226.206 381.726 229.142 382.21 231.567C383.23 236.631 384.089 241.719 384.786 246.831C386.213 257.278 386.724 269.079 378.563 277.849C369.56 287.548 353.773 290.667 340.257 293.011C315.212 297.355 285.245 299.692 267.877 280.484C264.587 276.87 262.063 272.792 260.099 268.56C254.59 256.675 253.315 243.317 254.463 230.663C255.789 215.93 260.43 201.401 269.535 188.728C280.144 173.993 294.988 163.21 312.279 154.528L315.978 151.884Z" fill="black" fill-opacity="0.1"/>
</g>
<path fill-rule="evenodd" clip-rule="evenodd" d="M332.739 330.695C348.51 286.619 364.244 311.261 359.273 261.254C357.695 245.61 367.057 198.46 397.115 203.849C422.886 208.469 450.714 223.396 454.241 230.833C461.395 245.847 440.67 303.466 416.219 313.275C395.615 324.796 385.414 341.703 332.739 330.695Z" fill="#FE9400"/>
<mask id="mask2_51_368" style="mask-type:luminance" maskUnits="userSpaceOnUse" x="332" y="203" width="124" height="132">
<path d="M332.739 330.695C348.51 286.619 364.244 311.261 359.273 261.254C357.695 245.61 367.057 198.46 397.115 203.849C422.886 208.469 450.714 223.396 454.241 230.833C461.395 245.847 440.67 303.466 416.219 313.275C395.615 324.796 385.414 341.703 332.739 330.695Z" fill="white"/>
</mask>
<g mask="url(#mask2_51_368)">
<path fill-rule="evenodd" clip-rule="evenodd" d="M424.119 246.716C421.154 248.339 418.818 250.766 416.726 253.133C411.272 259.217 408.193 266.027 406.24 273.433C404.302 280.744 403.332 288.64 398.776 295.222C395.378 300.081 390.197 303.359 385.037 306.774C372.073 315.367 365.694 317.525 351.113 322.342C342.83 325.065 322.269 340.479 320.848 348.537C319.84 354.151 331.787 352.132 336.142 351.682C347.961 350.454 359.494 347.138 371.259 345.41C388.057 342.926 406.173 341.909 421.207 334.431C441.177 324.486 452.224 303.459 454.471 284.53C455.545 275.522 454.872 265.531 448.197 258.082L424.119 246.716Z" fill="black" fill-opacity="0.1"/>
</g>
<path fill-rule="evenodd" clip-rule="evenodd" d="M451.218 227.449C469.267 232.467 508.818 315.836 489.066 333.278C469.314 350.721 332.684 332.104 332.684 332.104C328.95 333.681 315.791 331.411 313.505 327.473C310.836 322.886 294.763 327.825 293.631 323.203C292.981 320.506 305.412 315.101 323.034 315.309C326.788 315.355 335.974 317.133 335.974 317.133C335.974 317.133 429.853 316.421 439.266 309.776C450.905 301.544 417.332 277.163 419.219 246.81C420.382 228.152 441.269 224.685 451.218 227.449Z" fill="#FFC197"/>
<mask id="mask3_51_368" style="mask-type:luminance" maskUnits="userSpaceOnUse" x="293" y="226" width="202" height="115">
<path d="M451.218 227.449C469.267 232.467 508.818 315.836 489.066 333.278C469.314 350.721 332.684 332.104 332.684 332.104C328.95 333.681 315.791 331.411 313.505 327.473C310.836 322.886 294.763 327.825 293.631 323.203C292.981 320.506 305.412 315.101 323.034 315.309C326.788 315.355 335.974 317.133 335.974 317.133C335.974 317.133 429.853 316.421 439.266 309.776C450.905 301.544 417.332 277.163 419.219 246.81C420.382 228.152 441.269 224.685 451.218 227.449Z" fill="white"/>
</mask>
<g mask="url(#mask3_51_368)">
<path fill-rule="evenodd" clip-rule="evenodd" d="M423.833 285.527C425.715 281.569 432.457 279.15 436.651 277.566C441.082 275.889 445.888 274.949 450.776 275.207C458.132 275.594 464.961 278.384 472.343 278.452C477.835 278.5 483.466 276.852 487.976 274.217C490.085 272.987 491.917 271.446 493.383 269.668C502.013 259.141 492.494 243.892 485.279 234.865C477.16 224.707 465.066 215.633 450.623 212.807C428.228 208.42 406.908 222.209 401.198 240.202C398.983 247.327 398.83 254.8 400.751 261.985C402.995 270.528 407.72 278.73 415.253 284.793L423.833 285.527Z" fill="#FE9400"/>
</g>
<path fill-rule="evenodd" clip-rule="evenodd" d="M401.237 204.516C401.237 204.516 407.39 202.066 404.957 194.428C404.404 192.641 398.244 199.595 395.209 196.331C391.072 191.854 386.501 171.601 396.216 165.096C402.243 161.065 415.215 161.992 419.57 166.968C423.925 171.944 427.058 188.014 422.346 194.952C414.854 206.022 434.699 216.627 434.699 216.627C434.699 216.627 407.358 224.329 396.871 234.539C393.795 237.538 401.237 204.516 401.237 204.516Z" fill="#FFC197"/>
<mask id="mask4_51_368" style="mask-type:luminance" maskUnits="userSpaceOnUse" x="390" y="162" width="45" height="73">
<path d="M401.237 204.516C401.237 204.516 407.39 202.066 404.957 194.428C404.404 192.641 398.244 199.595 395.209 196.331C391.072 191.854 386.501 171.601 396.216 165.096C402.243 161.065 415.215 161.992 419.57 166.968C423.925 171.944 427.058 188.014 422.346 194.952C414.854 206.022 434.699 216.627 434.699 216.627C434.699 216.627 407.358 224.329 396.871 234.539C393.795 237.538 401.237 204.516 401.237 204.516Z" fill="white"/>
</mask>
<g mask="url(#mask4_51_368)">
<path fill-rule="evenodd" clip-rule="evenodd" d="M403.139 195.158C404.031 194.943 404.873 194.32 405.617 193.875C407.316 192.887 408.928 191.795 410.442 190.61C411.011 190.133 411.583 189.643 412.2 189.181C412.337 189.061 412.716 188.707 412.965 188.754C413.214 188.8 412.882 189.468 412.834 189.555C412.431 190.494 411.041 192.411 410.449 193.277C408.078 196.846 404.314 200.053 401.562 200.588L403.139 195.158Z" fill="black" fill-opacity="0.1"/>
</g>
<path fill-rule="evenodd" clip-rule="evenodd" d="M401.286 176.012C399.155 175.965 397.127 174.97 395.439 173.942C388.949 169.998 389.086 162.806 394.406 158.121C397.615 155.308 404.349 153.299 407.679 157.032C408.651 155.776 410.757 155.197 412.36 154.831C413.627 154.547 427.804 147.705 436.29 161.029C441.38 168.991 437.855 183.708 432.025 185.607C431.561 186.787 430.289 187.644 429.154 188.351C426.024 190.31 420.916 191.794 417.265 189.968C416.826 189.745 416.423 189.474 416.068 189.161C413.419 186.83 416.003 184.011 416.755 181.489C417.156 180.159 417.458 178.501 416.055 177.504C414.917 176.724 413.829 177.218 412.981 178.026C411.696 179.258 411.034 181.161 408.92 181.558C405.877 182.127 402.799 179.719 401.764 177.998C401.55 177.632 401.286 176.012 401.286 176.012Z" fill="black"/>
<path fill-rule="evenodd" clip-rule="evenodd" d="M382.69 119.425C382.688 118.727 382.456 118.042 382.021 117.449C381.587 116.855 380.965 116.376 380.227 116.064L328.574 94.1885C327.898 93.903 327.148 93.7684 326.393 93.7975C325.639 93.8265 324.906 94.0182 324.263 94.3544C323.621 94.6906 323.091 95.1603 322.723 95.7187C322.354 96.2772 322.161 96.906 322.16 97.5456V130.308C322.16 131.005 322.388 131.689 322.821 132.282C323.253 132.875 323.872 133.354 324.608 133.666L376.262 155.541C376.938 155.829 377.689 155.965 378.445 155.937C379.201 155.91 379.936 155.719 380.58 155.383C381.224 155.047 381.756 154.577 382.125 154.018C382.494 153.459 382.689 152.829 382.69 152.188V119.425Z" fill="#A37B9A"/>
<path fill-rule="evenodd" clip-rule="evenodd" d="M377.64 121.564C377.638 120.865 377.407 120.181 376.972 119.587C376.537 118.994 375.916 118.514 375.178 118.202L323.526 96.3271C322.85 96.0416 322.1 95.907 321.345 95.936C320.591 95.965 319.858 96.1567 319.216 96.493C318.573 96.8292 318.043 97.2988 317.675 97.8573C317.307 98.4157 317.113 99.0446 317.112 99.6841V132.447C317.112 133.144 317.34 133.827 317.773 134.42C318.205 135.014 318.824 135.493 319.561 135.804L371.214 157.679C371.89 157.967 372.641 158.104 373.397 158.076C374.153 158.048 374.888 157.857 375.532 157.521C376.176 157.185 376.708 156.716 377.077 156.156C377.447 155.597 377.641 154.967 377.642 154.327L377.64 121.564Z" fill="#77536F"/>
<path fill-rule="evenodd" clip-rule="evenodd" d="M335.153 121.083C334.838 121.082 334.53 121.159 334.266 121.305C334.003 121.451 333.795 121.659 333.67 121.904C333.553 122.152 333.523 122.424 333.583 122.686C333.644 122.949 333.793 123.19 334.013 123.382C338.775 127.408 348.612 135.728 353.374 139.774C353.597 139.963 353.881 140.092 354.191 140.144C354.501 140.196 354.822 140.169 355.113 140.066C355.398 139.957 355.64 139.781 355.812 139.559C355.983 139.338 356.077 139.08 356.082 138.815V122.431C356.082 122.253 356.041 122.077 355.961 121.913C355.881 121.749 355.763 121.6 355.615 121.474C355.467 121.349 355.291 121.249 355.097 121.181C354.903 121.113 354.696 121.078 354.486 121.078C350.636 121.071 340.685 121.088 335.153 121.083Z" fill="#E9DFE6"/>
<path fill-rule="evenodd" clip-rule="evenodd" d="M345.469 150.413C347.063 148.881 356.635 145.19 359.148 144.894C363.155 144.396 366.926 146.618 365.538 149.846C364.984 151.088 352.861 153.94 349.526 154.042C348.161 154.078 344.832 151.02 345.469 150.413Z" fill="#FFC197"/>
<path fill-rule="evenodd" clip-rule="evenodd" d="M390.58 189.687C390.834 189.15 391.257 188.684 391.804 188.338C393.079 187.427 394.763 186.902 396.216 187.915C397.594 188.891 397.951 191.116 400.424 190.142C400.732 190.021 401.016 189.86 401.266 189.665C403.51 187.828 404.735 184.746 405.245 182.195C405.449 181.13 405.423 180.028 405.678 178.972C405.755 178.661 405.959 178.047 406.469 178.211C407.31 178.477 408.025 179.11 408.866 179.417C409.121 179.508 409.657 179.556 409.784 179.797C410.116 180.48 409.121 182.152 408.968 182.856C408.56 184.737 408.255 186.643 407.923 188.535C407.77 189.367 407.821 190.272 407.515 191.073C407.234 191.773 406.597 192.356 406.163 192.978C405.551 193.801 405.117 194.709 404.301 195.411C402.388 197.067 398.767 198.256 396.039 198.307C391.142 198.4 388.694 192.957 390.096 189.55L390.58 189.687Z" fill="black"/>
</svg>
