<svg width="526" height="393" viewBox="0 0 526 393" fill="none" xmlns="http://www.w3.org/2000/svg">
<g opacity="0.85">
<path opacity="0.18" d="M218.154 6.05255C258.655 -5.92438 305.297 -0.454863 338.602 25.4018C368.878 48.952 385.078 85.7889 410.216 114.718C434.741 142.972 467.482 163.318 491.732 191.81C515.983 220.303 530.614 262.741 511.252 294.702C497.06 318.12 466.643 332.964 463.863 360.146C463.033 368.688 465.166 377.255 465.149 385.838C465.066 420.682 429.263 445.789 394.688 451.835C360.114 457.881 324.435 451.316 289.578 455.286C258.87 458.779 229.516 470.352 198.842 474.356C168.167 478.359 133.277 472.889 113.782 449.051C99.0426 431.028 95.9967 406.217 84.3362 386.127C59.8948 343.977 -1.97648 320.188 0.0485445 271.629C1.54242 236.398 37.246 213.837 56.6249 184.314C80.5683 147.774 81.7883 104.076 114.587 73.4578C143.51 46.3985 179.355 17.5188 218.154 6.05255Z" fill="#B668FD" fill-opacity="0.6"/>
<path opacity="0.57" d="M89.9131 273.853C78.6427 279.973 67.3805 287.856 62.4674 299.627C55.5125 316.341 63.7787 336.085 76.9413 348.598C103.184 373.54 143.228 375.781 179.562 375.847C234.271 375.951 288.952 374.389 343.606 371.16C360.304 370.171 377.251 368.977 393.003 363.359C414.582 355.657 432.334 340.237 449.364 324.998C457.821 317.436 466.527 309.413 470.469 298.82C478.337 277.7 464.535 254.52 447.679 239.454C420.831 215.649 386.005 202.635 350.005 202.955C348.445 207.898 353.897 212.016 358.619 214.183C373.691 221.085 389.858 225.847 403.859 234.71C417.86 243.573 429.852 257.873 430.068 274.347C430.367 296.374 410.357 313.194 390.547 323.12C344.61 346.135 291.586 350.344 240.13 350.674C209.083 350.896 177.313 349.726 148.332 338.647C142.207 336.308 135.634 332.881 133.634 326.67C132.148 322.082 133.592 317.066 135.609 312.667C138.853 305.744 143.49 299.553 149.233 294.473C154.976 289.394 161.704 285.533 169.005 283.128C178.965 279.908 190.111 279.331 198.526 273.153C205.165 268.277 209.506 256.168 202.103 250.501C195.389 245.361 175.711 249.306 168.076 250.039C140.672 252.675 114.087 260.775 89.9131 273.853Z" fill="white" fill-opacity="0.6"/>
<path d="M50.4499 17.5929L163.378 62.7824C165.077 63.4634 166.532 64.6325 167.557 66.1398C168.582 67.647 169.129 69.4237 169.13 71.242V262.461C169.13 263.972 168.753 265.459 168.031 266.789C167.309 268.119 166.265 269.25 164.994 270.08C163.723 270.911 162.263 271.415 160.747 271.547C159.231 271.68 157.705 271.436 156.307 270.838L40.9472 221.604C39.2861 220.887 37.8759 219.697 36.8939 218.186C35.9119 216.675 35.402 214.91 35.4282 213.112L37.8267 25.9372C37.8451 24.4545 38.2276 22.9985 38.941 21.6956C39.6543 20.3927 40.6771 19.2821 41.9206 18.4601C43.1641 17.6381 44.5908 17.1295 46.0771 16.9784C47.5634 16.8273 49.0643 17.0382 50.4499 17.5929Z" fill="#B668FD" fill-opacity="0.6"/>
<path d="M43.0887 20.476L155.959 65.6654C157.667 66.3378 159.132 67.502 160.168 69.0082C161.203 70.5143 161.761 72.2935 161.769 74.1168V265.344C161.767 266.854 161.388 268.34 160.666 269.669C159.943 270.997 158.9 272.128 157.629 272.958C156.358 273.788 154.9 274.292 153.385 274.426C151.869 274.559 150.344 274.317 148.946 273.721L33.586 224.479C31.9185 223.766 30.5008 222.579 29.5113 221.068C28.5219 219.557 28.0049 217.789 28.0255 215.987L30.424 28.812C30.4411 27.3248 30.8244 25.8643 31.5406 24.5578C32.2568 23.2513 33.2842 22.1386 34.533 21.3165C35.7819 20.4945 37.2144 19.9882 38.7057 19.8416C40.197 19.6951 41.7017 19.9129 43.0887 20.476ZM408.258 16.901L519.8 61.5468C521.624 62.275 523.187 63.5258 524.291 65.1396C525.396 66.7534 525.99 68.657 526 70.6077V260.311C526.005 261.941 525.602 263.546 524.827 264.983C524.052 266.42 522.929 267.642 521.559 268.541C520.189 269.44 518.616 269.986 516.98 270.131C515.345 270.276 513.699 270.016 512.19 269.372L398.299 220.715C396.501 219.947 394.973 218.668 393.906 217.04C392.84 215.411 392.283 213.505 392.307 211.563L394.688 25.8961C394.712 24.3029 395.125 22.7393 395.892 21.3397C396.66 19.9401 397.758 18.7465 399.093 17.8616C400.428 16.9766 401.96 16.4269 403.556 16.2595C405.153 16.0922 406.766 16.3123 408.258 16.901Z" fill="#B668FD" fill-opacity="0.6"/>
<path d="M401.618 20.8713L513.094 65.5007C514.925 66.232 516.494 67.4904 517.599 69.1139C518.704 70.7375 519.294 72.6519 519.294 74.611V264.281C519.299 265.911 518.896 267.517 518.121 268.953C517.346 270.39 516.223 271.613 514.853 272.511C513.483 273.41 511.91 273.957 510.274 274.102C508.639 274.247 506.992 273.986 505.484 273.342L391.584 224.743C389.787 223.976 388.259 222.697 387.194 221.068C386.129 219.439 385.574 217.533 385.6 215.591L387.974 29.9241C387.984 28.3167 388.39 26.7362 389.157 25.3207C389.925 23.9052 391.03 22.6981 392.376 21.8048C393.723 20.9115 395.269 20.3593 396.88 20.1966C398.491 20.0338 400.118 20.2655 401.618 20.8713Z" fill="#B668FD" fill-opacity="0.6"/>
<path d="M43.0887 20.4759L155.959 65.6654C157.667 66.3378 159.132 67.502 160.168 69.0082C161.203 70.5143 161.761 72.2935 161.769 74.1168V265.344C161.767 266.854 161.388 268.34 160.666 269.669C159.943 270.997 158.9 272.128 157.629 272.958C156.358 273.788 154.9 274.292 153.385 274.426C151.869 274.559 150.344 274.317 148.946 273.721L33.586 224.479C31.9185 223.766 30.5008 222.579 29.5113 221.068C28.5219 219.557 28.0049 217.789 28.0255 215.987L30.424 28.812C30.4411 27.3248 30.8244 25.8643 31.5406 24.5578C32.2568 23.2513 33.2842 22.1385 34.533 21.3165C35.7819 20.4945 37.2144 19.9882 38.7057 19.8416C40.197 19.6951 41.7017 19.9129 43.0887 20.4759Z" fill="url(#paint0_linear_15_193)"/>
<path d="M401.618 20.8713L513.094 65.5007C514.925 66.232 516.494 67.4904 517.599 69.1139C518.704 70.7375 519.294 72.6519 519.294 74.611V264.281C519.299 265.911 518.896 267.517 518.121 268.953C517.346 270.39 516.223 271.613 514.853 272.511C513.483 273.41 511.91 273.957 510.274 274.102C508.639 274.247 506.992 273.986 505.484 273.342L391.584 224.743C389.787 223.976 388.259 222.697 387.194 221.068C386.129 219.439 385.574 217.533 385.6 215.591L387.974 29.9241C387.984 28.3167 388.39 26.7362 389.157 25.3207C389.925 23.9052 391.03 22.698 392.376 21.8047C393.723 20.9115 395.269 20.3593 396.88 20.1966C398.491 20.0338 400.118 20.2655 401.618 20.8713Z" fill="url(#paint1_linear_15_193)"/>
<path d="M362.554 237.774L340.145 239.471L337.506 226.127C335.664 222.115 340.145 239.471 327.962 304.916L320.941 303.334L246.886 286.679L264.854 192.774L233.541 190.674L238.836 161.464L254.414 162.782C254.414 162.782 282.407 159.883 303.255 162.782C324.103 165.682 338.809 166.415 348.694 176.514C358.578 186.613 362.554 237.774 362.554 237.774Z" fill="#B668FD" fill-opacity="0.6"/>
<path d="M337.506 226.127C335.664 222.115 340.146 239.471 327.962 304.916L320.941 303.334L313.571 301.687C313.571 301.687 321.348 283.565 316.982 280.27C312.617 276.975 291.147 284.957 271.909 286.687C252.671 288.417 255.119 283.087 255.119 283.087C255.119 283.087 272.714 267.206 302.5 258.598C332.286 249.99 333.697 205.649 333.697 205.649L337.506 226.127Z" fill="url(#paint2_linear_15_193)"/>
<path d="M291.636 167.123C291.636 167.123 310.426 167.898 317.43 162.338L323.298 165.583C323.298 165.583 321.696 176.736 312.509 178.219C303.322 179.702 291.62 179.199 291.636 167.123Z" fill="#B668FD" fill-opacity="0.6"/>
<path d="M291.636 167.123C291.636 167.123 310.426 167.898 317.43 162.338L323.298 165.583C323.298 165.583 321.696 176.736 312.509 178.219C303.322 179.702 291.62 179.199 291.636 167.123Z" fill="url(#paint3_linear_15_193)"/>
<path d="M275.162 261.275L255.866 254.875C255.866 254.875 253.592 256.366 256.97 258.837C258.402 259.914 259.771 261.072 261.07 262.305L275.162 261.275Z" fill="url(#paint4_linear_15_193)" fill-opacity="0.6"/>
<path d="M292.964 159.174C293.387 155.88 293.553 152.23 295.686 149.628C297.004 148.215 298.581 147.066 300.334 146.242L314.384 138.499C316.094 137.56 317.953 136.588 319.887 136.852C320.357 136.891 320.806 137.063 321.182 137.346C322.119 138.112 321.97 139.562 321.738 140.756C320.31 147.955 318.874 155.155 317.43 162.354C317.113 164.396 316.525 166.388 315.679 168.277C314.518 170.405 312.778 172.167 310.659 173.364C308.539 174.561 306.123 175.144 303.687 175.048C299.703 174.823 295.96 173.082 293.238 170.188C290.084 166.901 292.449 163.252 292.964 159.174Z" fill="url(#paint5_linear_15_193)" fill-opacity="0.6"/>
<path d="M338.693 267.618C341.433 267.23 344.082 266.365 346.519 265.064C351.383 262.478 359.176 257.865 360.695 254.191C362.927 248.763 362.554 237.774 362.554 237.774L340.145 239.471C340.145 239.471 340.336 246.497 338.486 246.744C336.635 246.992 277.129 261.777 277.129 261.777C277.129 261.777 267.925 258.82 259.85 261.901C251.775 264.982 239.873 272.148 242.903 275.904C243.365 276.459 243.942 276.908 244.595 277.221C245.249 277.533 245.962 277.703 246.687 277.716C249.31 277.799 248.281 280.838 249.857 281.992C251.965 283.532 272.913 285.122 280.083 277.733C281.918 275.855 325.34 269.529 338.693 267.618Z" fill="url(#paint6_linear_15_193)"/>
<path d="M238.836 161.456L235.118 181.926C231.534 179.373 227.771 177.08 223.856 175.064C217.266 171.67 201.871 128.936 201.871 128.936C201.871 128.936 200.253 121.3 195.414 118.705C190.576 116.11 190.816 107.725 190.816 105.006C190.816 102.296 188.326 98.1118 185.895 94.7922C183.463 91.4726 185.895 89.7346 185.895 89.7346C185.895 89.7346 192.177 95.6489 192.293 94.9158C192.41 94.1827 189.156 86.0855 187.314 84.0509C185.471 82.0163 185.579 78.6473 186.575 78.153C187.571 77.6588 197.364 90.3524 197.364 90.3524C197.058 87.1669 196.26 84.0471 194.999 81.102C193.016 76.7939 193.513 71.9833 194.999 72.7247C196.485 73.466 202.701 87.5517 202.701 84.8581C202.701 82.1646 197.721 68.2931 201.705 69.7675C203.19 70.3194 204.809 73.1777 206.427 77.56C209.124 84.8993 211.797 96.5056 213.731 108.738C216.843 128.219 238.836 161.456 238.836 161.456Z" fill="url(#paint7_linear_15_193)"/>
<path d="M208.701 96.2585C208.701 96.2585 204.485 91.415 201.373 92.0492C198.261 92.6835 201.995 97.7329 201.995 97.7329C201.995 97.7329 204.601 102.173 203.365 105.254C202.128 108.334 201.257 115.237 201.622 115.484C201.987 115.731 198.891 118.573 195.539 111.3C194.441 108.888 192.833 106.739 190.825 104.998C190.825 102.288 188.335 98.1036 185.903 94.784C183.471 91.4644 185.903 89.7263 185.903 89.7263C185.903 89.7263 192.186 95.6407 192.302 94.9076C192.418 94.1744 189.165 86.0772 187.322 84.0426C185.48 82.0081 185.588 78.639 186.584 78.1448C187.579 77.6506 197.373 90.3441 197.373 90.3441C197.066 87.1587 196.268 84.0388 195.007 81.0937C193.024 76.7857 193.522 71.9751 195.007 72.7165C196.493 73.4578 202.709 87.5435 202.709 84.8499C202.709 82.1563 197.73 68.2848 201.713 69.7593C203.199 70.3112 204.817 73.1695 206.435 77.5517C206.469 77.5517 209.075 90.8301 208.701 96.2585Z" fill="url(#paint8_linear_15_193)" fill-opacity="0.6"/>
<path d="M358.213 444.677L327.962 465.361C323.422 456.646 340.146 440.237 340.146 440.237C340.146 440.237 314.418 399.998 304.384 373.112C296.74 352.716 293.595 331.555 281.602 331.728C277.793 331.786 273.095 333.993 267.07 339.059C242.056 360.064 249.932 431.398 249.932 431.398L242.463 435.599L212.444 452.403L211.174 445.229C209.979 429.15 231.972 421.514 231.972 421.514C231.972 421.514 229.408 386.53 231.972 351.497C234.537 316.464 246.911 286.679 246.911 286.679L313.596 301.679L323.323 303.861C322.775 372.527 357.632 443.565 358.205 444.66L358.213 444.677Z" fill="#5F16C7" fill-opacity="0.6"/>
<path d="M328.41 122.387C327.976 125.166 327.244 127.892 326.227 130.517C326.503 130.501 326.777 130.561 327.019 130.692C327.262 130.824 327.462 131.02 327.597 131.258C329.174 133.87 325.489 142.609 320.675 141.621C317.995 146.044 314.932 150.361 310.774 153.458C301.462 160.394 287.088 159.446 278.789 151.374C272.672 145.435 270.058 136.613 270.108 128.12C270.166 118.235 272.846 102.527 279.121 94.4133C285.395 86.2997 298.782 89.4216 307.015 92.214C313.38 94.3722 319.804 97.3293 323.929 102.601C328.219 108.087 329.414 115.517 328.41 122.387Z" fill="url(#paint9_linear_15_193)"/>
<path d="M271.909 83.7873C273.851 81.1514 273.037 77.5188 273.286 74.2651C273.585 70.4018 276.058 66.3491 279.926 65.7313C281.544 65.4677 283.196 65.8301 284.839 65.8137C288.159 65.8137 291.279 64.1662 294.408 63.0048C297.537 61.8433 301.197 61.0855 304.135 62.6753C305.952 63.6555 307.222 65.3936 308.774 66.7939C311.128 68.8182 314.11 69.9811 317.223 70.0888C319.713 70.1712 322.252 69.5534 324.775 69.5369C327.298 69.5204 330.078 70.2782 331.415 72.387C332.884 74.6357 332.294 77.5847 332.792 80.2206C333.166 82.1728 334.693 83.3837 336.411 84.4216C338.129 85.4595 340.038 86.3244 341.233 87.9224C341.857 88.8678 342.262 89.9391 342.418 91.0587C342.575 92.1783 342.479 93.3185 342.137 94.3969C341.443 96.5456 340.382 98.5601 339 100.352C338.17 101.563 337.232 102.922 337.457 104.38C337.747 106.324 339.838 107.379 341.092 108.894C341.623 109.613 341.994 110.437 342.178 111.31C342.362 112.183 342.355 113.085 342.159 113.955C341.962 114.825 341.58 115.644 341.038 116.355C340.496 117.066 339.807 117.654 339.017 118.079C337.988 118.557 336.809 118.763 335.946 119.496C333.913 121.242 334.768 124.916 332.743 126.67C331.083 128.137 328.203 127.255 326.825 125.484C325.447 123.713 322.269 119.207 321.945 116.992C321.364 113.417 323.348 111.819 320.866 109.166C317.961 106.077 313.538 105.048 309.596 103.483C304.724 101.514 298.74 101.917 293.918 99.8334C289.661 97.9883 283.478 96.1267 279.162 94.4133C274.847 92.7 274.457 87.6341 271.909 83.7873Z" fill="#5F16C7" fill-opacity="0.6"/>
<path d="M322.891 116.234L333.68 122.881C333.68 122.881 330.493 131.802 327.954 132.766L314.725 127.107L322.891 116.234Z" fill="#B668FD" fill-opacity="0.6"/>
<path d="M322.891 116.234L333.68 122.881C333.68 122.881 330.493 131.802 327.954 132.766L314.725 127.107L322.891 116.234Z" fill="url(#paint10_linear_15_193)"/>
<path d="M272.573 84.0509C272.573 84.0509 258.281 84.298 254.787 89.2321C251.293 94.1662 247.924 110.525 247.924 110.525L296.74 131.819C296.74 131.819 303.197 134.619 308.783 130.657C314.368 126.695 324.012 123.474 323.613 118.425C323.215 113.375 327.166 108.211 319.215 104.273C311.264 100.336 277.843 94.8828 272.573 84.0509Z" fill="#B668FD" fill-opacity="0.6"/>
<path d="M272.573 84.0509C272.573 84.0509 258.281 84.298 254.787 89.2321C251.293 94.1662 247.924 110.525 247.924 110.525L296.74 131.819C296.74 131.819 303.197 134.619 308.783 130.657C314.368 126.695 324.012 123.474 323.613 118.425C323.215 113.375 327.166 108.211 319.215 104.273C311.264 100.336 277.843 94.8828 272.573 84.0509Z" fill="url(#paint11_linear_15_193)"/>
<path d="M254.787 89.2321C254.787 89.2321 303.446 107.025 305.496 108.73C307.546 110.435 304.376 123.005 301.396 129.1C298.417 135.196 293.296 132.774 293.296 132.774L249.169 115.608C249.169 115.608 246.305 113.763 249.169 104.15C252.032 94.5369 253.6 91.5056 254.787 89.2321Z" fill="#B668FD" fill-opacity="0.6"/>
<path d="M254.787 89.2321C254.787 89.2321 303.446 107.025 305.496 108.73C307.546 110.435 304.375 123.005 301.396 129.1C298.417 135.196 293.296 132.774 293.296 132.774L249.169 115.608C249.169 115.608 246.305 113.763 249.169 104.15C252.032 94.5369 253.6 91.5056 254.787 89.2321Z" fill="url(#paint12_linear_15_193)"/>
<path d="M247.251 100.064C247.633 98.7297 249.865 97.4446 251.177 97.9306C261.758 101.86 302.707 117.824 307.23 117.824C312.417 117.824 323.646 115.558 323.646 115.558C323.877 116.5 323.877 117.483 323.646 118.425C323.223 119.537 310.093 124.603 304.408 123.664C299.429 122.84 258.588 108.944 248.87 105.319C247.716 104.891 246.645 102.222 246.977 101.036L247.251 100.064Z" fill="#B668FD" fill-opacity="0.6"/>
<path d="M247.251 100.064C247.633 98.7297 249.865 97.4446 251.177 97.9306C261.758 101.86 302.707 117.824 307.23 117.824C312.417 117.824 323.646 115.558 323.646 115.558C323.877 116.5 323.877 117.483 323.646 118.425C323.223 119.537 310.093 124.603 304.408 123.664C299.429 122.84 258.588 108.944 248.87 105.319C247.716 104.891 246.645 102.222 246.977 101.036L247.251 100.064Z" fill="url(#paint13_linear_15_193)"/>
<path d="M235.118 181.926H256.099C257.421 181.925 258.727 182.214 259.924 182.773C261.121 183.333 262.178 184.148 263.019 185.16C263.861 186.173 264.466 187.358 264.792 188.63C265.118 189.902 265.156 191.23 264.904 192.519L264.854 192.791L233.541 190.69L235.118 181.926Z" fill="url(#paint14_linear_15_193)"/>
<path d="M358.205 444.66C314.99 399.545 313.571 301.678 313.571 301.678L323.298 303.861C322.775 372.527 357.632 443.565 358.205 444.66ZM281.602 331.728C277.793 331.786 273.095 333.993 267.07 339.059C242.056 360.064 249.932 431.398 249.932 431.398L242.463 435.599C236.205 398.219 235.823 366.077 255.053 340.443C262.63 330.27 280.448 331.604 281.602 331.728Z" fill="#2C233A"/>
<path opacity="0.57" d="M189.986 198.029C193.372 211.3 209.075 216.72 222.461 219.858C256.107 227.741 283.735 225.937 317.721 219.627C332.991 216.794 356.462 215.929 374.928 221.003C376.588 221.473 380.837 207.14 379.775 205.739C379.036 204.767 364.994 203.161 363.79 202.939C353.175 201.028 326.701 201.736 315.978 202.939C290.175 205.855 260.19 173.227 250.679 197.099C249.285 200.608 187.189 187.033 189.986 198.029Z" fill="white" fill-opacity="0.6"/>
</g>
<defs>
<linearGradient id="paint0_linear_15_193" x1="131.128" y1="478.169" x2="93.1699" y2="123.941" gradientUnits="userSpaceOnUse">
<stop offset="0.01"/>
<stop offset="0.99" stop-opacity="0"/>
</linearGradient>
<linearGradient id="paint1_linear_15_193" x1="479.748" y1="396.077" x2="441.782" y2="41.8484" gradientUnits="userSpaceOnUse">
<stop offset="0.01"/>
<stop offset="0.99" stop-opacity="0"/>
</linearGradient>
<linearGradient id="paint2_linear_15_193" x1="363.143" y1="278.985" x2="231.938" y2="213.722" gradientUnits="userSpaceOnUse">
<stop offset="0.01"/>
<stop offset="0.15" stop-opacity="0.48"/>
<stop offset="0.99" stop-opacity="0"/>
</linearGradient>
<linearGradient id="paint3_linear_15_193" x1="340.876" y1="176.777" x2="287.975" y2="165.905" gradientUnits="userSpaceOnUse">
<stop offset="0.01"/>
<stop offset="0.99" stop-opacity="0"/>
</linearGradient>
<linearGradient id="paint4_linear_15_193" x1="265.02" y1="258.565" x2="262.434" y2="261.261" gradientUnits="userSpaceOnUse">
<stop stop-color="#912CEC"/>
<stop offset="0.42" stop-color="#E1D1EF"/>
<stop offset="1" stop-color="#DFC9F2"/>
</linearGradient>
<linearGradient id="paint5_linear_15_193" x1="307.919" y1="154.66" x2="318.187" y2="168.145" gradientUnits="userSpaceOnUse">
<stop stop-color="#912CEC"/>
<stop offset="0.83" stop-color="#DFC9F2"/>
</linearGradient>
<linearGradient id="paint6_linear_15_193" x1="242.43" y1="260.534" x2="362.578" y2="260.534" gradientUnits="userSpaceOnUse">
<stop stop-color="#912CEC"/>
<stop offset="0.42" stop-color="#E1D1EF"/>
<stop offset="1" stop-color="#DFC9F2"/>
</linearGradient>
<linearGradient id="paint7_linear_15_193" x1="184.816" y1="125.789" x2="238.836" y2="125.789" gradientUnits="userSpaceOnUse">
<stop stop-color="#912CEC"/>
<stop offset="0.42" stop-color="#E1D1EF"/>
<stop offset="1" stop-color="#DFC9F2"/>
</linearGradient>
<linearGradient id="paint8_linear_15_193" x1="184.816" y1="92.9389" x2="208.743" y2="92.9389" gradientUnits="userSpaceOnUse">
<stop stop-color="#912CEC"/>
<stop offset="0.42" stop-color="#E1D1EF"/>
<stop offset="1" stop-color="#DFC9F2"/>
</linearGradient>
<linearGradient id="paint9_linear_15_193" x1="325.663" y1="105.179" x2="270.214" y2="138.776" gradientUnits="userSpaceOnUse">
<stop stop-color="#912CEC"/>
<stop offset="0.83" stop-color="#DFC9F2"/>
</linearGradient>
<linearGradient id="paint10_linear_15_193" x1="328.02" y1="117.832" x2="322.329" y2="129.307" gradientUnits="userSpaceOnUse">
<stop offset="0.01"/>
<stop offset="0.99" stop-opacity="0"/>
</linearGradient>
<linearGradient id="paint11_linear_15_193" x1="244.04" y1="115.707" x2="354.603" y2="96.274" gradientUnits="userSpaceOnUse">
<stop offset="0.01"/>
<stop offset="0.99" stop-opacity="0"/>
</linearGradient>
<linearGradient id="paint12_linear_15_193" x1="270.141" y1="130.072" x2="285.121" y2="89.3976" gradientUnits="userSpaceOnUse">
<stop offset="0.01"/>
<stop offset="0.99" stop-opacity="0"/>
</linearGradient>
<linearGradient id="paint13_linear_15_193" x1="286.374" y1="105.122" x2="282.455" y2="121.955" gradientUnits="userSpaceOnUse">
<stop offset="0.01"/>
<stop offset="0.99" stop-opacity="0"/>
</linearGradient>
<linearGradient id="paint14_linear_15_193" x1="254.049" y1="208.417" x2="245.734" y2="175.981" gradientUnits="userSpaceOnUse">
<stop offset="0.01"/>
<stop offset="0.99" stop-opacity="0"/>
</linearGradient>
</defs>
</svg>
