<svg width="49" height="38" viewBox="0 0 49 38" fill="none" xmlns="http://www.w3.org/2000/svg">
<g id="polygon 1">
<path id="Vector" d="M23.6459 12.57L12.7919 18.4643C12.592 18.5716 12.3658 18.6281 12.1356 18.6281C11.9054 18.6281 11.6792 18.5716 11.4793 18.4643L8.00353 16.5833C7.80646 16.4737 7.64337 16.3174 7.53045 16.1302C7.41753 15.9429 7.35872 15.7312 7.35986 15.516V11.7541C7.36001 11.5377 7.42073 11.3252 7.53592 11.1379C7.65112 10.9505 7.81674 10.7949 8.01615 10.6867L11.4819 8.80581C11.6817 8.69848 11.9079 8.64202 12.1381 8.64202C12.3684 8.64202 12.5946 8.69848 12.7944 8.80581L16.2601 10.6867C16.4596 10.7949 16.6252 10.9505 16.7404 11.1379C16.8556 11.3252 16.9163 11.5377 16.9164 11.7541V13.5591C16.9165 13.613 16.9316 13.6659 16.9602 13.7126C16.9888 13.7593 17.0299 13.7981 17.0794 13.8252C17.129 13.8523 17.1852 13.8668 17.2425 13.8671C17.2998 13.8675 17.3562 13.8537 17.4061 13.8272L19.2109 12.8476C19.3103 12.7934 19.3928 12.7155 19.4499 12.6218C19.5071 12.5281 19.537 12.4219 19.5365 12.3139V10.331C19.5364 10.1149 19.476 9.90258 19.3612 9.71529C19.2465 9.528 19.0815 9.37226 18.8828 9.26359L12.7818 5.96188C12.5824 5.85339 12.356 5.79626 12.1255 5.79626C11.8951 5.79626 11.6687 5.85339 11.4692 5.96188L5.3809 9.26359C5.18148 9.37177 5.01587 9.52735 4.90067 9.7147C4.78548 9.90205 4.72476 10.1146 4.72461 10.331V16.9391C4.72476 17.1555 4.78548 17.368 4.90067 17.5554C5.01587 17.7427 5.18148 17.8983 5.3809 18.0065L11.4692 21.3082C11.6687 21.4167 11.8951 21.4738 12.1255 21.4738C12.356 21.4738 12.5824 21.4167 12.7818 21.3082L23.6358 15.414C23.8357 15.3066 24.0619 15.2502 24.2921 15.2502C24.5223 15.2502 24.7485 15.3066 24.9484 15.414L28.4141 17.2949C28.6135 17.4031 28.7791 17.5587 28.8943 17.746C29.0095 17.9334 29.0703 18.1459 29.0704 18.3623V22.1241C29.0703 22.3405 29.0095 22.553 28.8943 22.7404C28.7791 22.9277 28.6135 23.0833 28.4141 23.1915L24.9585 25.0724C24.7586 25.1798 24.5324 25.2362 24.3022 25.2362C24.072 25.2362 23.8458 25.1798 23.6459 25.0724L20.1802 23.1915C19.9808 23.0833 19.8152 22.9277 19.7 22.7404C19.5848 22.553 19.5241 22.3405 19.5239 22.1241V20.3167C19.5242 20.2628 19.5093 20.2097 19.4807 20.163C19.4521 20.1162 19.4108 20.0774 19.3611 20.0504C19.3114 20.0234 19.255 20.0093 19.1976 20.0094C19.1402 20.0095 19.0838 20.0239 19.0342 20.0511L17.2294 21.0283C17.1302 21.0827 17.0479 21.1606 16.9908 21.2543C16.9336 21.3479 16.9036 21.454 16.9038 21.562V23.5473C16.904 23.7634 16.9644 23.9757 17.0791 24.163C17.1938 24.3502 17.3588 24.506 17.5576 24.6147L23.6459 27.9164C23.8454 28.0249 24.0718 28.082 24.3022 28.082C24.5327 28.082 24.759 28.0249 24.9585 27.9164L31.0468 24.6147C31.2463 24.5065 31.4119 24.3509 31.5271 24.1635C31.6423 23.9762 31.703 23.7637 31.7031 23.5473V16.9391C31.703 16.7227 31.6423 16.5102 31.5271 16.3229C31.4119 16.1355 31.2463 15.9799 31.0468 15.8718L24.9585 12.57C24.759 12.4616 24.5327 12.4044 24.3022 12.4044C24.0718 12.4044 23.8454 12.4616 23.6459 12.57Z" fill="#5F16C7"/>
</g>
</svg>
